<?xml version="1.0" encoding="UTF-8" standalone="no"?>
<svg
   xmlns:osb="http://www.openswatchbook.org/uri/2009/osb"
   xmlns:dc="http://purl.org/dc/elements/1.1/"
   xmlns:cc="http://creativecommons.org/ns#"
   xmlns:rdf="http://www.w3.org/1999/02/22-rdf-syntax-ns#"
   xmlns:svg="http://www.w3.org/2000/svg"
   xmlns="http://www.w3.org/2000/svg"
   xmlns:xlink="http://www.w3.org/1999/xlink"
   xmlns:sodipodi="http://sodipodi.sourceforge.net/DTD/sodipodi-0.dtd"
   xmlns:inkscape="http://www.inkscape.org/namespaces/inkscape"
   sodipodi:docname="color_id_examples.svg"
   inkscape:version="0.92.4 (5da689c313, 2019-01-14)"
   id="svg1003"
   version="1.1"
   viewBox="0 0 270.93332 116.41666"
   height="440"
   width="1024"
   inkscape:export-filename="D:\Development\KYANIT\kyanit_eu\avatar.png"
   inkscape:export-xdpi="994.35156"
   inkscape:export-ydpi="994.35156">
  <defs
     id="defs997">
    <marker
       inkscape:isstock="true"
       style="overflow:visible"
       id="marker6302"
       refX="0"
       refY="0"
       orient="auto"
       inkscape:stockid="Arrow1Mend">
      <path
         inkscape:connector-curvature="0"
         transform="matrix(-0.4,0,0,-0.4,-4,0)"
         style="fill:#121212;fill-opacity:1;fill-rule:evenodd;stroke:#121212;stroke-width:1.00000003pt;stroke-opacity:1"
         d="M 0,0 5,-5 -12.5,0 5,5 Z"
         id="path6300" />
    </marker>
    <marker
       inkscape:stockid="Arrow2Send"
       orient="auto"
       refY="0"
       refX="0"
       id="Arrow2Send"
       style="overflow:visible"
       inkscape:isstock="true">
      <path
         id="path5354"
         style="fill:#909090;fill-opacity:1;fill-rule:evenodd;stroke:#909090;stroke-width:0.625;stroke-linejoin:round;stroke-opacity:1"
         d="M 8.7185878,4.0337352 -2.2072895,0.01601326 8.7185884,-4.0017078 c -1.7454984,2.3720609 -1.7354408,5.6174519 -6e-7,8.035443 z"
         transform="matrix(-0.3,0,0,-0.3,0.69,0)"
         inkscape:connector-curvature="0" />
    </marker>
    <linearGradient
       id="linearGradient825"
       osb:paint="solid"
       gradientTransform="matrix(0,0.08369619,-0.0836962,0,180.28423,98.486343)">
      <stop
         style="stop-color:#dda256;stop-opacity:1;"
         offset="0"
         id="stop823" />
    </linearGradient>
    <linearGradient
       id="linearGradient1404"
       osb:paint="solid"
       gradientTransform="matrix(0.24464609,0,0,0.24464609,-10.703032,290.63996)">
      <stop
         style="stop-color:#a1a1a1;stop-opacity:1;"
         offset="0"
         id="stop1402" />
    </linearGradient>
    <filter
       inkscape:collect="always"
       style="color-interpolation-filters:sRGB"
       id="filter5242"
       x="-0.60989022"
       width="2.2197804"
       y="-0.60989022"
       height="2.2197804">
      <feGaussianBlur
         inkscape:collect="always"
         stdDeviation="1.890978"
         id="feGaussianBlur5244" />
    </filter>
    <filter
       inkscape:collect="always"
       style="color-interpolation-filters:sRGB"
       id="filter5246"
       x="-0.78829581"
       width="2.5765917"
       y="-0.46020892"
       height="1.9204178">
      <feGaussianBlur
         inkscape:collect="always"
         stdDeviation="1.9138326"
         id="feGaussianBlur5248" />
    </filter>
    <filter
       inkscape:collect="always"
       style="color-interpolation-filters:sRGB"
       id="filter5250"
       x="-0.78829581"
       width="2.5765917"
       y="-0.46020892"
       height="1.9204178">
      <feGaussianBlur
         inkscape:collect="always"
         stdDeviation="1.9138326"
         id="feGaussianBlur5252" />
    </filter>
    <clipPath
       clipPathUnits="userSpaceOnUse"
       id="clipPath6008">
      <path
         style="opacity:1;fill:none;fill-opacity:1;stroke:url(#linearGradient6012);stroke-width:0.57554638;stroke-linecap:square;stroke-linejoin:bevel;stroke-miterlimit:100;stroke-dasharray:none;stroke-opacity:1"
         d="m 129.12394,98.501928 3.91499,-6.781114 1.476,0.852169 0.67319,-1.166023 -1.47602,-0.852196 1.47751,0.853019 0.67319,-1.166032 -1.47753,-0.853027 3.86884,-6.700891 6.27583,-1.62e-4 3.53027,6.118687 -1.35054,0.779739 0.67336,1.166298 1.35054,-0.779739 -1.35207,0.78062 0.33668,0.583144 0.33668,0.583144 1.35208,-0.78062 -1.35056,0.779739 0.67337,1.166297 1.35055,-0.77974 3.60801,6.245196 -3.06361,5.306474 -8.55926,-8e-5 3e-5,-1.62905 -0.67333,5e-5 -0.67333,5e-5 0.0282,1.62908 -8.53143,-1.7e-4 z m 8.69479,-1.450025 7.14657,-4.6e-5 -3.57325,-6.189063 z"
         id="path6010"
         inkscape:connector-curvature="0"
         sodipodi:nodetypes="cccccccccccccccccccccccccccccccccc" />
    </clipPath>
    <linearGradient
       inkscape:collect="always"
       xlink:href="#linearGradient1404"
       id="linearGradient6012"
       gradientUnits="userSpaceOnUse"
       gradientTransform="matrix(0.54382341,0.94192976,0.94192976,-0.54382341,-25.376176,10.864896)"
       x1="132.05511"
       y1="92.499763"
       x2="155.30794"
       y2="92.499763" />
    <clipPath
       clipPathUnits="userSpaceOnUse"
       id="clipPath6072">
      <path
         style="opacity:1;fill:none;fill-opacity:1;stroke:url(#linearGradient6076);stroke-width:0.57554638;stroke-linecap:square;stroke-linejoin:bevel;stroke-miterlimit:100;stroke-dasharray:none;stroke-opacity:1"
         d="m 161.85553,98.501928 3.91499,-6.781114 1.476,0.852169 0.67319,-1.166023 -1.47602,-0.852196 1.47751,0.853019 0.67319,-1.166032 -1.47753,-0.853027 3.86884,-6.700891 6.27583,-1.62e-4 3.53027,6.118687 -1.35054,0.779739 0.67336,1.166298 1.35054,-0.779739 -1.35207,0.78062 0.33668,0.583144 0.33668,0.583144 1.35208,-0.78062 -1.35056,0.779739 0.67337,1.166297 1.35055,-0.77974 3.60801,6.245196 -3.06361,5.306474 -8.55926,-8e-5 3e-5,-1.62905 -0.67333,5e-5 -0.67333,5e-5 0.0282,1.62908 -8.53143,-1.7e-4 z m 8.69479,-1.450025 7.14657,-4.6e-5 -3.57325,-6.189063 z"
         id="path6074"
         inkscape:connector-curvature="0"
         sodipodi:nodetypes="cccccccccccccccccccccccccccccccccc" />
    </clipPath>
    <linearGradient
       inkscape:collect="always"
       xlink:href="#linearGradient1404"
       id="linearGradient6076"
       gradientUnits="userSpaceOnUse"
       gradientTransform="matrix(0.54382341,0.94192976,0.94192976,-0.54382341,7.3554183,10.864896)"
       x1="132.05511"
       y1="92.499763"
       x2="155.30794"
       y2="92.499763" />
    <clipPath
       clipPathUnits="userSpaceOnUse"
       id="clipPath6093">
      <path
         style="opacity:1;fill:none;fill-opacity:1;stroke:url(#linearGradient6097);stroke-width:0.57554638;stroke-linecap:square;stroke-linejoin:bevel;stroke-miterlimit:100;stroke-dasharray:none;stroke-opacity:1"
         d="m 194.58713,98.501928 3.91499,-6.781114 1.476,0.852169 0.67319,-1.166023 -1.47602,-0.852196 1.47751,0.853019 0.67319,-1.166032 -1.47753,-0.853027 3.86884,-6.700891 6.27583,-1.62e-4 3.53027,6.118687 -1.35054,0.779739 0.67336,1.166298 1.35054,-0.779739 -1.35207,0.78062 0.33668,0.583144 0.33668,0.583144 1.35208,-0.78062 -1.35056,0.779739 0.67337,1.166297 1.35055,-0.77974 3.60801,6.245196 -3.06361,5.306474 -8.55926,-8e-5 3e-5,-1.62905 -0.67333,5e-5 -0.67333,5e-5 0.0282,1.62908 -8.53143,-1.7e-4 z m 8.69479,-1.450025 7.14657,-4.6e-5 -3.57325,-6.189063 z"
         id="path6095"
         inkscape:connector-curvature="0"
         sodipodi:nodetypes="cccccccccccccccccccccccccccccccccc" />
    </clipPath>
    <linearGradient
       inkscape:collect="always"
       xlink:href="#linearGradient1404"
       id="linearGradient6097"
       gradientUnits="userSpaceOnUse"
       gradientTransform="matrix(0.54382341,0.94192976,0.94192976,-0.54382341,40.087018,10.864896)"
       x1="132.05511"
       y1="92.499763"
       x2="155.30794"
       y2="92.499763" />
    <linearGradient
       inkscape:collect="always"
       xlink:href="#linearGradient1404"
       id="linearGradient6294"
       gradientUnits="userSpaceOnUse"
       gradientTransform="matrix(1.4092772,2.4409398,2.4409398,-1.4092772,-89.981446,-113.78694)"
       x1="132.05511"
       y1="92.499763"
       x2="155.30794"
       y2="92.499763" />
    <linearGradient
       inkscape:collect="always"
       xlink:href="#linearGradient1404"
       id="linearGradient6296"
       gradientUnits="userSpaceOnUse"
       gradientTransform="matrix(1.4092772,2.4409398,2.4409398,-1.4092772,-174.80291,-113.78694)"
       x1="132.05511"
       y1="92.499763"
       x2="155.30794"
       y2="92.499763" />
    <linearGradient
       inkscape:collect="always"
       xlink:href="#linearGradient1404"
       id="linearGradient6298"
       gradientUnits="userSpaceOnUse"
       gradientTransform="matrix(1.4092772,2.4409398,2.4409398,-1.4092772,-259.62436,-113.78694)"
       x1="132.05511"
       y1="92.499763"
       x2="155.30794"
       y2="92.499763" />
  </defs>
  <sodipodi:namedview
     inkscape:window-maximized="1"
     inkscape:window-y="1072"
     inkscape:window-x="1432"
     inkscape:window-height="1017"
     inkscape:window-width="1920"
     inkscape:pagecheckerboard="true"
     units="px"
     inkscape:showpageshadow="false"
     showgrid="false"
     inkscape:document-rotation="0"
     inkscape:current-layer="g2688"
     inkscape:document-units="px"
     inkscape:cy="153.41426"
     inkscape:cx="589.63219"
     inkscape:zoom="0.66755547"
     inkscape:pageshadow="2"
     inkscape:pageopacity="0"
     borderopacity="1"
     bordercolor="#ff00ff"
     pagecolor="#ffffff"
     id="base"
     fit-margin-top="0"
     fit-margin-bottom="0"
     fit-margin-left="0"
     fit-margin-right="0"
     inkscape:snap-bbox="true"
     inkscape:bbox-paths="true"
     inkscape:bbox-nodes="true"
     inkscape:snap-bbox-edge-midpoints="true"
     inkscape:snap-bbox-midpoints="true"
     inkscape:snap-object-midpoints="true"
     inkscape:snap-center="true"
     showguides="false"
     inkscape:guide-bbox="true"
     inkscape:snap-global="true"
     showborder="true"
     inkscape:snap-page="true">
    <sodipodi:guide
       position="30.88069,64.043187"
       orientation="-0.00015874017,-24.83403"
       id="guide829"
       inkscape:locked="false" />
    <sodipodi:guide
       position="11.13829,59.164442"
       orientation="-21.506738,12.41692"
       id="guide831"
       inkscape:locked="false" />
    <sodipodi:guide
       position="16.69024,78.627522"
       orientation="21.506896,12.417109"
       id="guide833"
       inkscape:locked="false" />
    <sodipodi:guide
       position="19.601212,71.11133"
       orientation="-13.105097,0.00011338583"
       id="guide843"
       inkscape:locked="false" />
    <sodipodi:guide
       position="22.886572,65.420964"
       orientation="6.5525295,11.349242"
       id="guide847"
       inkscape:locked="false" />
    <sodipodi:guide
       position="16.315901,65.421006"
       orientation="6.5526051,-11.349355"
       id="guide849"
       inkscape:locked="false" />
    <inkscape:grid
       type="xygrid"
       id="grid1513"
       originx="6.5146303"
       originy="55.817298" />
  </sodipodi:namedview>
  <metadata
     id="metadata1000">
    <rdf:RDF>
      <cc:Work
         rdf:about="">
        <dc:format>image/svg+xml</dc:format>
        <dc:type
           rdf:resource="http://purl.org/dc/dcmitype/StillImage" />
        <dc:title />
      </cc:Work>
    </rdf:RDF>
  </metadata>
  <g
     id="layer1"
     inkscape:groupmode="layer"
     inkscape:label="Layer 1"
     transform="translate(-121.81786,-45.751633)">
    <rect
       y="45.751633"
       x="121.81786"
       height="116.41666"
       width="270.93332"
       id="rect6200"
       style="opacity:1;fill:#ffffff;fill-opacity:1;stroke:none;stroke-width:0.68647534;stroke-linecap:square;stroke-linejoin:bevel;stroke-miterlimit:100;stroke-dasharray:none;stroke-opacity:1" />
    <g
       id="g5824"
       transform="translate(0,-6.9827339)">
      <path
         style="opacity:1;fill:#e6e6e6;fill-opacity:1;stroke:url(#linearGradient6294);stroke-width:1.491485;stroke-linecap:square;stroke-linejoin:bevel;stroke-miterlimit:100;stroke-dasharray:none;stroke-opacity:1"
         d="m 310.39392,113.31781 10.1454,-17.572755 3.82494,2.208334 1.74452,-3.021653 -3.82499,-2.208412 3.82885,2.210537 1.74452,-3.021678 -3.8289,-2.210563 10.0258,-17.36485 16.26334,-4.15e-4 9.14843,15.856123 -3.49982,2.020611 1.74496,3.022379 3.49982,-2.020638 -3.50379,2.022918 0.87248,1.511189 0.87248,1.511163 3.50382,-2.022917 -3.49988,2.020637 1.74499,3.022378 3.49985,-2.020637 9.34988,16.183939 -7.93911,13.75134 -22.18067,-2.1e-4 7e-5,-4.22156 -1.74488,1.3e-4 -1.74488,1.3e-4 0.0731,4.22164 -22.10855,-4.4e-4 z m 22.53189,-3.75764 18.51979,-1.3e-4 -9.2598,-16.038479 z"
         id="path6202"
         inkscape:connector-curvature="0"
         sodipodi:nodetypes="cccccccccccccccccccccccccccccccccc" />
      <path
         sodipodi:nodetypes="cccccccccccccccccccccccccccccccccc"
         inkscape:connector-curvature="0"
         id="path6204"
         d="m 225.57245,113.31781 10.1454,-17.572755 3.82494,2.208334 1.74452,-3.021653 -3.82499,-2.208412 3.82885,2.210537 1.74453,-3.021678 -3.82891,-2.210563 10.02581,-17.36485 16.26333,-4.15e-4 9.14843,15.856123 -3.49982,2.020611 1.74496,3.022379 3.49982,-2.020638 -3.50378,2.022918 0.87248,1.511189 0.87248,1.511163 3.50381,-2.022917 -3.49987,2.020637 1.74498,3.022378 3.49985,-2.020637 9.34989,16.183939 -7.93912,13.75134 -22.18067,-2.1e-4 8e-5,-4.22156 -1.74489,1.3e-4 -1.74488,1.3e-4 0.0731,4.22164 -22.10856,-4.4e-4 z m 22.53189,-3.75764 18.5198,-1.3e-4 -9.25981,-16.038479 z"
         style="opacity:1;fill:#e6e6e6;fill-opacity:1;stroke:url(#linearGradient6296);stroke-width:1.491485;stroke-linecap:square;stroke-linejoin:bevel;stroke-miterlimit:100;stroke-dasharray:none;stroke-opacity:1" />
      <g
         aria-label="RGB"
         style="font-style:normal;font-variant:normal;font-weight:normal;font-stretch:normal;font-size:10.97036266px;line-height:1.25;font-family:Barlow;-inkscape-font-specification:Barlow;text-align:center;letter-spacing:0px;word-spacing:0px;text-anchor:middle;fill:#000000;fill-opacity:1;stroke-width:0.68564767"
         id="text6208">
        <path
           d="m 167.17386,154.77287 q -0.0987,0 -0.13165,-0.0768 l -1.61264,-3.40081 q -0.011,-0.0329 -0.0439,-0.0329 h -1.86496 q -0.0439,0 -0.0439,0.0439 v 3.35693 q 0,0.1097 -0.10971,0.1097 h -0.55949 q -0.1097,0 -0.1097,-0.1097 v -7.45985 q 0,-0.1097 0.1097,-0.1097 h 2.84133 q 0.94345,0 1.52488,0.5924 0.58143,0.58143 0.58143,1.52488 0,0.76792 -0.41688,1.30547 -0.41687,0.53755 -1.12994,0.69114 -0.0439,0.0219 -0.022,0.0548 l 1.64556,3.37887 q 0.011,0.0219 0.011,0.0548 0,0.0768 -0.0878,0.0768 z m -3.65313,-6.99909 q -0.0439,0 -0.0439,0.0439 v 2.7755 q 0,0.0439 0.0439,0.0439 h 2.04048 q 0.63628,0 1.03122,-0.39494 0.39493,-0.39493 0.39493,-1.03121 0,-0.63628 -0.39493,-1.03122 -0.39494,-0.4059 -1.03122,-0.4059 z"
           style="text-align:center;text-anchor:middle;fill:#000000;fill-opacity:1;stroke-width:0.68564767"
           id="path5840" />
        <path
           d="m 171.74113,154.86064 q -0.76793,0 -1.34936,-0.2962 -0.58143,-0.30717 -0.91054,-0.85569 -0.31814,-0.54852 -0.31814,-1.26159 v -3.02782 q 0,-0.71308 0.31814,-1.2616 0.32911,-0.54851 0.91054,-0.84471 0.58143,-0.30717 1.34936,-0.30717 0.75695,0 1.33838,0.2962 0.5924,0.2962 0.91054,0.83374 0.31814,0.52658 0.31814,1.19577 v 0.14262 q 0,0.1097 -0.1097,0.1097 H 173.639 q -0.1097,0 -0.1097,-0.1097 v -0.13165 q 0,-0.73501 -0.49367,-1.19577 -0.4827,-0.46075 -1.2945,-0.46075 -0.81181,0 -1.30548,0.47172 -0.49366,0.47173 -0.49366,1.23966 v 3.0717 q 0,0.76792 0.50464,1.23965 0.50463,0.47172 1.32741,0.47172 0.80084,0 1.27256,-0.43881 0.4827,-0.43882 0.4827,-1.17383 v -0.9983 q 0,-0.0439 -0.0439,-0.0439 h -1.61265 q -0.1097,0 -0.1097,-0.10971 v -0.46075 q 0,-0.10971 0.1097,-0.10971 h 2.32572 q 0.1097,0 0.1097,0.10971 v 1.41517 q 0,1.17383 -0.7021,1.83205 -0.69113,0.65823 -1.86496,0.65823 z"
           style="text-align:center;text-anchor:middle;fill:#000000;fill-opacity:1;stroke-width:0.68564767"
           id="path5842" />
        <path
           d="m 179.98296,150.76869 q -0.0549,0.0329 0,0.0658 0.5924,0.24135 0.89957,0.71308 0.30717,0.47172 0.30717,1.14091 0,0.98734 -0.63629,1.53585 -0.62531,0.54852 -1.65652,0.54852 h -2.65483 q -0.1097,0 -0.1097,-0.1097 v -7.45985 q 0,-0.1097 0.1097,-0.1097 h 2.57804 q 1.06412,0 1.66749,0.52658 0.61434,0.52657 0.61434,1.481 0,0.60337 -0.2962,1.03121 -0.28523,0.41687 -0.82277,0.63628 z m -3.02782,-2.99491 q -0.0439,0 -0.0439,0.0439 v 2.63289 q 0,0.0439 0.0439,0.0439 h 1.86496 q 0.69113,0 1.09703,-0.36202 0.41688,-0.36202 0.41688,-0.96539 0,-0.63628 -0.41688,-1.00928 -0.4059,-0.38396 -1.09703,-0.38396 z m 1.94175,6.30796 q 0.69113,0 1.09704,-0.39493 0.41687,-0.39494 0.41687,-1.06413 0,-0.66919 -0.42784,-1.06412 -0.41688,-0.40591 -1.12995,-0.40591 h -1.89787 q -0.0439,0 -0.0439,0.0439 v 2.84133 q 0,0.0439 0.0439,0.0439 z"
           style="text-align:center;text-anchor:middle;fill:#000000;fill-opacity:1;stroke-width:0.68564767"
           id="path5844" />
      </g>
      <path
         style="opacity:1;fill:#e6e6e6;fill-opacity:1;stroke:url(#linearGradient6298);stroke-width:1.491485;stroke-linecap:square;stroke-linejoin:bevel;stroke-miterlimit:100;stroke-dasharray:none;stroke-opacity:1"
         d="m 140.75101,113.31781 10.1454,-17.572755 3.82494,2.208334 1.74452,-3.021653 -3.82499,-2.208412 3.82885,2.210537 1.74452,-3.021678 -3.8289,-2.210563 10.0258,-17.36485 16.26334,-4.15e-4 9.14843,15.856123 -3.49982,2.020611 1.74496,3.022379 3.49982,-2.020638 -3.50378,2.022918 0.87248,1.511189 0.87248,1.511163 3.50381,-2.022917 -3.49987,2.020637 1.74498,3.022378 3.49985,-2.020637 9.34989,16.183939 -7.93912,13.75134 -22.18067,-2.1e-4 8e-5,-4.22156 -1.74489,1.3e-4 -1.74488,1.3e-4 0.0731,4.22164 -22.10856,-4.4e-4 z m 22.53189,-3.75764 18.5198,-1.3e-4 -9.25981,-16.038479 z"
         id="path6210"
         inkscape:connector-curvature="0"
         sodipodi:nodetypes="cccccccccccccccccccccccccccccccccc" />
      <g
         transform="matrix(-2.5914244,0,0,2.5914244,538.45362,-258.0786)"
         id="g2688">
        <g
           aria-label="third color"
           transform="matrix(-0.5,-0.8660254,-0.8660254,0.5,0,0)"
           style="font-style:normal;font-variant:normal;font-weight:normal;font-stretch:normal;font-size:2.82222199px;line-height:1.25;font-family:Barlow;-inkscape-font-specification:Barlow;letter-spacing:0px;word-spacing:0px;fill:#1d1d1d;fill-opacity:1;stroke-width:0.26458332"
           id="text6234">
          <path
             d="m -197.76769,-65.666533 q 0,0.02822 -0.0282,0.02822 h -0.31891 q -0.0113,0 -0.0113,0.01129 v 0.832555 q 0,0.135467 0.0593,0.191912 0.0621,0.05362 0.19191,0.05362 h 0.0705 q 0.0282,0 0.0282,0.02822 V -64.405 q 0,0.02822 -0.0282,0.02822 -0.0339,0.0028 -0.10442,0.0028 -0.2032,0 -0.30762,-0.0762 -0.10442,-0.0762 -0.10442,-0.282223 v -0.894644 q 0,-0.01129 -0.0113,-0.01129 h -0.17216 q -0.0282,0 -0.0282,-0.02822 V -65.7766 q 0,-0.02822 0.0282,-0.02822 h 0.17216 q 0.0113,0 0.0113,-0.01129 v -0.327378 q 0,-0.02822 0.0282,-0.02822 h 0.13829 q 0.0282,0 0.0282,0.02822 v 0.327378 q 0,0.01129 0.0113,0.01129 h 0.31891 q 0.0282,0 0.0282,0.02822 z"
             style="font-size:2.82222199px;fill:#1d1d1d;fill-opacity:1;stroke-width:0.26458332"
             id="path5866" />
          <path
             d="m -196.7904,-65.824578 q 0.22577,0 0.35842,0.132645 0.13546,0.132644 0.13546,0.3556 V -64.405 q 0,0.02822 -0.0282,0.02822 h -0.14393 q -0.0282,0 -0.0282,-0.02822 v -0.891822 q 0,-0.155222 -0.096,-0.254 -0.0931,-0.09878 -0.24271,-0.09878 -0.15522,0 -0.25118,0.09596 -0.096,0.09596 -0.096,0.251178 V -64.405 q 0,0.02822 -0.0282,0.02822 h -0.14393 q -0.0282,0 -0.0282,-0.02822 v -1.919111 q 0,-0.02822 0.0282,-0.02822 h 0.14393 q 0.0282,0 0.0282,0.02822 v 0.668867 q 0,0.0056 0.003,0.0085 0.006,0.0028 0.008,-0.0028 0.12417,-0.174978 0.381,-0.174978 z"
             style="font-size:2.82222199px;fill:#1d1d1d;fill-opacity:1;stroke-width:0.26458332"
             id="path5868" />
          <path
             d="m -195.72625,-66.064466 q -0.0677,0 -0.11289,-0.04516 -0.0452,-0.04516 -0.0452,-0.112889 0,-0.07055 0.0452,-0.112889 0.0452,-0.04515 0.11289,-0.04515 0.0677,0 0.11289,0.04515 0.0452,0.04233 0.0452,0.112889 0,0.06773 -0.0452,0.112889 -0.0452,0.04516 -0.11289,0.04516 z m -0.079,1.684866 q -0.0282,0 -0.0282,-0.02822 v -1.3716 q 0,-0.02822 0.0282,-0.02822 h 0.14393 q 0.0282,0 0.0282,0.02822 v 1.3716 q 0,0.02822 -0.0282,0.02822 z"
             style="font-size:2.82222199px;fill:#1d1d1d;fill-opacity:1;stroke-width:0.26458332"
             id="path5870" />
          <path
             d="m -194.56389,-65.818933 q 0.0931,0 0.16086,0.03669 0.0226,0.01129 0.0169,0.03669 l -0.031,0.138289 q -0.008,0.02822 -0.0367,0.01693 -0.048,-0.01976 -0.11006,-0.01976 l -0.0367,0.0028 q -0.14676,0.0056 -0.24271,0.110066 -0.096,0.1016 -0.096,0.259645 V -64.405 q 0,0.02822 -0.0282,0.02822 h -0.14393 q -0.0282,0 -0.0282,-0.02822 v -1.3716 q 0,-0.02822 0.0282,-0.02822 h 0.14393 q 0.0282,0 0.0282,0.02822 v 0.172156 q 0,0.0085 0.003,0.01129 0.006,0 0.008,-0.0056 0.0593,-0.104422 0.14958,-0.160866 0.0931,-0.05927 0.21449,-0.05927 z"
             style="font-size:2.82222199px;fill:#1d1d1d;fill-opacity:1;stroke-width:0.26458332"
             id="path5872" />
          <path
             d="m -193.24472,-66.324111 q 0,-0.02822 0.0282,-0.02822 h 0.14393 q 0.0282,0 0.0282,0.02822 V -64.405 q 0,0.02822 -0.0282,0.02822 h -0.14393 q -0.0282,0 -0.0282,-0.02822 v -0.118533 q 0,-0.0056 -0.006,-0.0056 -0.003,-0.0028 -0.008,0.0028 -0.0621,0.08184 -0.15522,0.127 -0.0903,0.04515 -0.2032,0.04515 -0.19755,0 -0.33302,-0.1016 -0.13264,-0.1016 -0.18344,-0.276578 -0.0395,-0.127 -0.0395,-0.358422 0,-0.234244 0.0339,-0.349955 0.0508,-0.180623 0.18627,-0.282223 0.13546,-0.104422 0.33584,-0.104422 0.11007,0 0.2032,0.04516 0.0931,0.04233 0.15522,0.124178 0.006,0.0056 0.008,0.0056 0.006,-0.0028 0.006,-0.0085 z m -0.0508,1.577622 q 0.0254,-0.05644 0.0367,-0.132644 0.0113,-0.0762 0.0113,-0.211667 0,-0.135466 -0.0113,-0.211666 -0.0113,-0.07902 -0.0395,-0.138289 -0.0339,-0.09596 -0.11289,-0.1524 -0.0762,-0.05927 -0.18344,-0.05927 -0.11289,0 -0.19473,0.05644 -0.0819,0.05644 -0.11854,0.149578 -0.0339,0.06209 -0.0508,0.141111 -0.0141,0.0762 -0.0141,0.214489 0,0.132645 0.0113,0.208845 0.0113,0.07338 0.0395,0.132644 0.0339,0.1016 0.11854,0.160867 0.0875,0.05927 0.20602,0.05927 0.11289,0 0.18909,-0.05927 0.0762,-0.05927 0.11289,-0.158045 z"
             style="font-size:2.82222199px;fill:#1d1d1d;fill-opacity:1;stroke-width:0.26458332"
             id="path5874" />
          <path
             d="m -191.48621,-64.3542 q -0.2032,0 -0.34996,-0.104422 -0.14393,-0.107245 -0.19756,-0.287867 -0.0367,-0.124177 -0.0367,-0.349955 0,-0.2032 0.0367,-0.344311 0.0508,-0.174978 0.19756,-0.2794 0.14676,-0.107245 0.34996,-0.107245 0.20602,0 0.3556,0.104422 0.15239,0.104423 0.19755,0.259645 0.0141,0.0508 0.0169,0.08467 v 0.0056 q 0,0.01976 -0.0254,0.0254 l -0.14111,0.01976 h -0.006 q -0.0198,0 -0.0254,-0.0254 l -0.008,-0.04233 q -0.0254,-0.107244 -0.12418,-0.180622 -0.0988,-0.0762 -0.23988,-0.0762 -0.14112,0 -0.23707,0.0762 -0.0931,0.07338 -0.12136,0.197556 -0.0254,0.107244 -0.0254,0.285044 0,0.186267 0.0254,0.287867 0.0282,0.127 0.12136,0.2032 0.0959,0.07338 0.23707,0.07338 0.13828,0 0.23706,-0.07055 0.1016,-0.07338 0.127,-0.186267 v -0.01129 l 0.003,-0.01129 q 0.003,-0.02822 0.0339,-0.02258 l 0.13829,0.02258 q 0.0282,0.0056 0.0254,0.03104 l -0.0113,0.05644 q -0.0423,0.163689 -0.19473,0.265289 -0.1524,0.1016 -0.35842,0.1016 z"
             style="font-size:2.82222199px;fill:#1d1d1d;fill-opacity:1;stroke-width:0.26458332"
             id="path5876" />
          <path
             d="m -190.02536,-64.3542 q -0.2032,0 -0.34996,-0.104422 -0.14675,-0.104422 -0.2032,-0.287867 -0.0395,-0.129822 -0.0395,-0.347133 0,-0.217311 0.0395,-0.344311 0.0536,-0.180622 0.20038,-0.285045 0.14676,-0.104422 0.3556,-0.104422 0.20038,0 0.34431,0.104422 0.14676,0.104423 0.20038,0.282223 0.0395,0.121355 0.0395,0.347133 0,0.2286 -0.0395,0.347133 -0.0536,0.183445 -0.20038,0.287867 -0.14393,0.104422 -0.34713,0.104422 z m 0,-0.174978 q 0.13546,0 0.23142,-0.07338 0.096,-0.0762 0.12982,-0.2032 0.0254,-0.1016 0.0254,-0.285045 0,-0.186266 -0.0226,-0.285044 -0.0339,-0.127 -0.13264,-0.200378 -0.096,-0.0762 -0.23424,-0.0762 -0.13829,0 -0.23425,0.0762 -0.096,0.07338 -0.12982,0.200378 -0.0226,0.09878 -0.0226,0.285044 0,0.186267 0.0226,0.285045 0.031,0.127 0.127,0.2032 0.0988,0.07338 0.23989,0.07338 z"
             style="font-size:2.82222199px;fill:#1d1d1d;fill-opacity:1;stroke-width:0.26458332"
             id="path5878" />
          <path
             d="m -189.00394,-64.376778 q -0.0282,0 -0.0282,-0.02822 v -1.919111 q 0,-0.02822 0.0282,-0.02822 h 0.14393 q 0.0282,0 0.0282,0.02822 V -64.405 q 0,0.02822 -0.0282,0.02822 z"
             style="font-size:2.82222199px;fill:#1d1d1d;fill-opacity:1;stroke-width:0.26458332"
             id="path5880" />
          <path
             d="m -187.83704,-64.3542 q -0.2032,0 -0.34995,-0.104422 -0.14676,-0.104422 -0.2032,-0.287867 -0.0395,-0.129822 -0.0395,-0.347133 0,-0.217311 0.0395,-0.344311 0.0536,-0.180622 0.20037,-0.285045 0.14676,-0.104422 0.3556,-0.104422 0.20038,0 0.34432,0.104422 0.14675,0.104423 0.20037,0.282223 0.0395,0.121355 0.0395,0.347133 0,0.2286 -0.0395,0.347133 -0.0536,0.183445 -0.20037,0.287867 -0.14394,0.104422 -0.34714,0.104422 z m 0,-0.174978 q 0.13547,0 0.23142,-0.07338 0.096,-0.0762 0.12983,-0.2032 0.0254,-0.1016 0.0254,-0.285045 0,-0.186266 -0.0226,-0.285044 -0.0339,-0.127 -0.13265,-0.200378 -0.096,-0.0762 -0.23424,-0.0762 -0.13829,0 -0.23424,0.0762 -0.096,0.07338 -0.12983,0.200378 -0.0226,0.09878 -0.0226,0.285044 0,0.186267 0.0226,0.285045 0.0311,0.127 0.127,0.2032 0.0988,0.07338 0.23989,0.07338 z"
             style="font-size:2.82222199px;fill:#1d1d1d;fill-opacity:1;stroke-width:0.26458332"
             id="path5882" />
          <path
             d="m -186.2681,-65.818933 q 0.0931,0 0.16086,0.03669 0.0226,0.01129 0.0169,0.03669 l -0.031,0.138289 q -0.008,0.02822 -0.0367,0.01693 -0.048,-0.01976 -0.11006,-0.01976 l -0.0367,0.0028 q -0.14676,0.0056 -0.24271,0.110066 -0.096,0.1016 -0.096,0.259645 V -64.405 q 0,0.02822 -0.0282,0.02822 h -0.14393 q -0.0282,0 -0.0282,-0.02822 v -1.3716 q 0,-0.02822 0.0282,-0.02822 h 0.14393 q 0.0282,0 0.0282,0.02822 v 0.172156 q 0,0.0085 0.003,0.01129 0.006,0 0.008,-0.0056 0.0593,-0.104422 0.14958,-0.160866 0.0931,-0.05927 0.21449,-0.05927 z"
             style="font-size:2.82222199px;fill:#1d1d1d;fill-opacity:1;stroke-width:0.26458332"
             id="path5884" />
        </g>
        <path
           sodipodi:nodetypes="csccsc"
           inkscape:connector-curvature="0"
           id="path6236"
           d="m 134.13246,152.11786 c -0.70476,-0.41022 -1.37217,-0.87967 -1.99499,-1.40228 -2.49125,-2.09041 -4.26893,-5.03124 -4.86873,-8.4329 m 9.15023,-15.84867 c 3.24583,-1.18138 6.68149,-1.11228 9.73748,1e-5 0.76399,0.27807 1.50425,0.62134 2.21189,1.02657"
           style="opacity:0.75;fill:none;fill-opacity:1;stroke:#121212;stroke-width:0.2446461;stroke-linecap:square;stroke-linejoin:bevel;stroke-miterlimit:100;stroke-dasharray:none;stroke-opacity:1;marker-end:url(#marker6302)" />
        <g
           aria-label="second color"
           transform="matrix(-0.5,0.8660254,0.8660254,0.5,0,0)"
           style="font-style:normal;font-variant:normal;font-weight:normal;font-stretch:normal;font-size:2.82222199px;line-height:1.25;font-family:Barlow;-inkscape-font-specification:Barlow;letter-spacing:0px;word-spacing:0px;fill:#1d1d1d;fill-opacity:1;stroke-width:0.26458332"
           id="text6240">
          <path
             d="m 43.060359,180.71072 q -0.158044,0 -0.282222,-0.0508 -0.121355,-0.0508 -0.189089,-0.13547 -0.06491,-0.0847 -0.06491,-0.18908 v -0.0339 q 0,-0.0282 0.02822,-0.0282 h 0.135467 q 0.02822,0 0.02822,0.0282 v 0.0226 q 0,0.0931 0.09596,0.16369 0.09878,0.0677 0.245533,0.0677 0.146756,0 0.237067,-0.0649 0.09031,-0.0677 0.09031,-0.16934 0,-0.0705 -0.04798,-0.11571 -0.04516,-0.0452 -0.110067,-0.0706 -0.06209,-0.0254 -0.194733,-0.0649 -0.158044,-0.0452 -0.259644,-0.0903 -0.1016,-0.0452 -0.172156,-0.12418 -0.06773,-0.0819 -0.06773,-0.20602 0,-0.18063 0.141111,-0.28787 0.141111,-0.10725 0.372533,-0.10725 0.155222,0 0.273756,0.0508 0.121355,0.0508 0.186266,0.14112 0.06491,0.0875 0.06491,0.19755 v 0.008 q 0,0.0282 -0.02822,0.0282 h -0.132644 q -0.02822,0 -0.02822,-0.0282 v -0.008 q 0,-0.096 -0.09313,-0.16087 -0.09031,-0.0649 -0.245533,-0.0649 -0.143933,0 -0.231422,0.0593 -0.08749,0.0564 -0.08749,0.15804 0,0.096 0.08467,0.14676 0.08467,0.0508 0.262466,0.1016 0.163689,0.048 0.265289,0.0903 0.1016,0.0423 0.174978,0.12418 0.07338,0.079 0.07338,0.20884 0,0.18345 -0.143934,0.29351 -0.143933,0.11007 -0.381,0.11007 z"
             style="font-size:2.82222199px;fill:#1d1d1d;fill-opacity:1;stroke-width:0.26458332"
             id="path5887" />
          <path
             d="m 45.042882,179.7427 q 0.01129,0.079 0.01129,0.19755 v 0.0903 q 0,0.0282 -0.02822,0.0282 h -0.911578 q -0.01129,0 -0.01129,0.0113 0.0056,0.15522 0.01693,0.20037 0.03104,0.127 0.132645,0.20038 0.1016,0.0734 0.259644,0.0734 0.118534,0 0.208845,-0.0536 0.09031,-0.0536 0.141111,-0.1524 0.01693,-0.0254 0.03951,-0.0113 l 0.110067,0.0649 q 0.02258,0.0141 0.01129,0.0395 -0.07055,0.13547 -0.211666,0.21449 -0.141111,0.0762 -0.324556,0.0762 -0.200377,-0.003 -0.335844,-0.096 -0.135467,-0.0931 -0.194733,-0.25964 -0.0508,-0.13547 -0.0508,-0.38947 0,-0.11853 0.0028,-0.19191 0.0056,-0.0762 0.02258,-0.13546 0.04798,-0.18345 0.191911,-0.29352 0.146755,-0.11006 0.352777,-0.11006 0.256823,0 0.395111,0.12982 0.138289,0.12982 0.172156,0.36689 z m -0.567267,-0.32173 q -0.138288,0 -0.231422,0.0734 -0.09031,0.0706 -0.118533,0.19191 -0.01693,0.0593 -0.02258,0.19192 0,0.0113 0.01129,0.0113 h 0.730955 q 0.01129,0 0.01129,-0.0113 -0.0056,-0.127 -0.01693,-0.18063 -0.03104,-0.127 -0.127,-0.20037 -0.09313,-0.0762 -0.237067,-0.0762 z"
             style="font-size:2.82222199px;fill:#1d1d1d;fill-opacity:1;stroke-width:0.26458332"
             id="path5889" />
          <path
             d="m 45.991722,180.71919 q -0.2032,0 -0.349956,-0.10442 -0.143933,-0.10725 -0.197555,-0.28787 -0.03669,-0.12418 -0.03669,-0.34996 0,-0.2032 0.03669,-0.34431 0.0508,-0.17498 0.197555,-0.2794 0.146756,-0.10724 0.349956,-0.10724 0.206022,0 0.3556,0.10442 0.1524,0.10442 0.197555,0.25964 0.01411,0.0508 0.01693,0.0847 v 0.006 q 0,0.0198 -0.0254,0.0254 l -0.141111,0.0197 h -0.0056 q -0.01975,0 -0.0254,-0.0254 l -0.0085,-0.0423 q -0.0254,-0.10725 -0.124177,-0.18062 -0.09878,-0.0762 -0.239889,-0.0762 -0.141111,0 -0.237067,0.0762 -0.09313,0.0734 -0.121355,0.19755 -0.0254,0.10725 -0.0254,0.28505 0,0.18626 0.0254,0.28786 0.02822,0.127 0.121355,0.2032 0.09596,0.0734 0.237067,0.0734 0.138289,0 0.237066,-0.0706 0.1016,-0.0734 0.127,-0.18626 v -0.0113 l 0.0028,-0.0113 q 0.0028,-0.0282 0.03387,-0.0226 l 0.138289,0.0226 q 0.02822,0.006 0.0254,0.031 l -0.01129,0.0565 q -0.04233,0.16369 -0.194733,0.26529 -0.1524,0.1016 -0.358422,0.1016 z"
             style="font-size:2.82222199px;fill:#1d1d1d;fill-opacity:1;stroke-width:0.26458332"
             id="path5891" />
          <path
             d="m 47.452575,180.71919 q -0.2032,0 -0.349956,-0.10442 -0.146756,-0.10443 -0.2032,-0.28787 -0.03951,-0.12982 -0.03951,-0.34713 0,-0.21732 0.03951,-0.34432 0.05362,-0.18062 0.200378,-0.28504 0.146755,-0.10442 0.3556,-0.10442 0.200378,0 0.344311,0.10442 0.146755,0.10442 0.200378,0.28222 0.03951,0.12136 0.03951,0.34714 0,0.2286 -0.03951,0.34713 -0.05362,0.18344 -0.200378,0.28787 -0.143933,0.10442 -0.347133,0.10442 z m 0,-0.17498 q 0.135466,0 0.231422,-0.0734 0.09596,-0.0762 0.129822,-0.2032 0.0254,-0.1016 0.0254,-0.28504 0,-0.18627 -0.02258,-0.28505 -0.03387,-0.127 -0.132644,-0.20037 -0.09596,-0.0762 -0.234245,-0.0762 -0.138289,0 -0.234244,0.0762 -0.09596,0.0734 -0.129822,0.20037 -0.02258,0.0988 -0.02258,0.28505 0,0.18626 0.02258,0.28504 0.03104,0.127 0.127,0.2032 0.09878,0.0734 0.239889,0.0734 z"
             style="font-size:2.82222199px;fill:#1d1d1d;fill-opacity:1;stroke-width:0.26458332"
             id="path5893" />
          <path
             d="m 49.038443,179.24881 q 0.225777,0 0.358422,0.13264 0.135467,0.13265 0.135467,0.3556 v 0.93134 q 0,0.0282 -0.02822,0.0282 h -0.143933 q -0.02822,0 -0.02822,-0.0282 v -0.89182 q 0,-0.15523 -0.09596,-0.254 -0.09313,-0.0988 -0.242711,-0.0988 -0.155222,0 -0.251178,0.096 -0.09595,0.096 -0.09595,0.25118 v 0.89747 q 0,0.0282 -0.02822,0.0282 h -0.143934 q -0.02822,0 -0.02822,-0.0282 v -1.3716 q 0,-0.0282 0.02822,-0.0282 h 0.143934 q 0.02822,0 0.02822,0.0282 v 0.12135 q 0,0.006 0.0028,0.008 0.0056,0.003 0.0085,-0.003 0.124178,-0.17498 0.381,-0.17498 z"
             style="font-size:2.82222199px;fill:#1d1d1d;fill-opacity:1;stroke-width:0.26458332"
             id="path5895" />
          <path
             d="m 50.83126,178.74928 q 0,-0.0282 0.02822,-0.0282 h 0.143933 q 0.02822,0 0.02822,0.0282 v 1.91911 q 0,0.0282 -0.02822,0.0282 h -0.143933 q -0.02822,0 -0.02822,-0.0282 v -0.11854 q 0,-0.006 -0.0056,-0.006 -0.0028,-0.003 -0.0085,0.003 -0.06209,0.0819 -0.155222,0.127 -0.09031,0.0452 -0.2032,0.0452 -0.197555,0 -0.333022,-0.1016 -0.132644,-0.1016 -0.183444,-0.27658 -0.03951,-0.127 -0.03951,-0.35842 0,-0.23425 0.03387,-0.34996 0.0508,-0.18062 0.186267,-0.28222 0.135466,-0.10442 0.335844,-0.10442 0.110067,0 0.2032,0.0452 0.09313,0.0423 0.155222,0.12418 0.0056,0.006 0.0085,0.006 0.0056,-0.003 0.0056,-0.008 z m -0.0508,1.57762 q 0.0254,-0.0564 0.03669,-0.13265 0.01129,-0.0762 0.01129,-0.21166 0,-0.13547 -0.01129,-0.21167 -0.01129,-0.079 -0.03951,-0.13829 -0.03387,-0.096 -0.112889,-0.1524 -0.0762,-0.0593 -0.183444,-0.0593 -0.112889,0 -0.194733,0.0564 -0.08185,0.0564 -0.118534,0.14958 -0.03387,0.0621 -0.0508,0.14111 -0.01411,0.0762 -0.01411,0.21449 0,0.13264 0.01129,0.20884 0.01129,0.0734 0.03951,0.13265 0.03387,0.1016 0.118534,0.16086 0.08749,0.0593 0.206022,0.0593 0.112889,0 0.189089,-0.0593 0.0762,-0.0593 0.112889,-0.15804 z"
             style="font-size:2.82222199px;fill:#1d1d1d;fill-opacity:1;stroke-width:0.26458332"
             id="path5897" />
          <path
             d="m 52.589769,180.71919 q -0.2032,0 -0.349956,-0.10442 -0.143933,-0.10725 -0.197556,-0.28787 -0.03669,-0.12418 -0.03669,-0.34996 0,-0.2032 0.03669,-0.34431 0.0508,-0.17498 0.197556,-0.2794 0.146756,-0.10724 0.349956,-0.10724 0.206022,0 0.3556,0.10442 0.1524,0.10442 0.197555,0.25964 0.01411,0.0508 0.01693,0.0847 v 0.006 q 0,0.0198 -0.0254,0.0254 l -0.141111,0.0197 h -0.0056 q -0.01976,0 -0.0254,-0.0254 l -0.0085,-0.0423 q -0.0254,-0.10725 -0.124178,-0.18062 -0.09878,-0.0762 -0.239888,-0.0762 -0.141112,0 -0.237067,0.0762 -0.09313,0.0734 -0.121356,0.19755 -0.0254,0.10725 -0.0254,0.28505 0,0.18626 0.0254,0.28786 0.02822,0.127 0.121356,0.2032 0.09595,0.0734 0.237067,0.0734 0.138288,0 0.237066,-0.0706 0.1016,-0.0734 0.127,-0.18626 v -0.0113 l 0.0028,-0.0113 q 0.0028,-0.0282 0.03387,-0.0226 l 0.138289,0.0226 q 0.02822,0.006 0.0254,0.031 l -0.01129,0.0565 q -0.04233,0.16369 -0.194733,0.26529 -0.1524,0.1016 -0.358422,0.1016 z"
             style="font-size:2.82222199px;fill:#1d1d1d;fill-opacity:1;stroke-width:0.26458332"
             id="path5899" />
          <path
             d="m 54.050621,180.71919 q -0.2032,0 -0.349956,-0.10442 -0.146755,-0.10443 -0.2032,-0.28787 -0.03951,-0.12982 -0.03951,-0.34713 0,-0.21732 0.03951,-0.34432 0.05362,-0.18062 0.200378,-0.28504 0.146756,-0.10442 0.3556,-0.10442 0.200378,0 0.344311,0.10442 0.146756,0.10442 0.200378,0.28222 0.03951,0.12136 0.03951,0.34714 0,0.2286 -0.03951,0.34713 -0.05362,0.18344 -0.200378,0.28787 -0.143933,0.10442 -0.347133,0.10442 z m 0,-0.17498 q 0.135466,0 0.231422,-0.0734 0.09596,-0.0762 0.129822,-0.2032 0.0254,-0.1016 0.0254,-0.28504 0,-0.18627 -0.02258,-0.28505 -0.03387,-0.127 -0.132644,-0.20037 -0.09596,-0.0762 -0.234244,-0.0762 -0.138289,0 -0.234245,0.0762 -0.09596,0.0734 -0.129822,0.20037 -0.02258,0.0988 -0.02258,0.28505 0,0.18626 0.02258,0.28504 0.03104,0.127 0.127,0.2032 0.09878,0.0734 0.239889,0.0734 z"
             style="font-size:2.82222199px;fill:#1d1d1d;fill-opacity:1;stroke-width:0.26458332"
             id="path5901" />
          <path
             d="m 55.072045,180.69661 q -0.02822,0 -0.02822,-0.0282 v -1.91911 q 0,-0.0282 0.02822,-0.0282 h 0.143933 q 0.02822,0 0.02822,0.0282 v 1.91911 q 0,0.0282 -0.02822,0.0282 z"
             style="font-size:2.82222199px;fill:#1d1d1d;fill-opacity:1;stroke-width:0.26458332"
             id="path5903" />
          <path
             d="m 56.238946,180.71919 q -0.2032,0 -0.349956,-0.10442 -0.146755,-0.10443 -0.2032,-0.28787 -0.03951,-0.12982 -0.03951,-0.34713 0,-0.21732 0.03951,-0.34432 0.05362,-0.18062 0.200378,-0.28504 0.146756,-0.10442 0.3556,-0.10442 0.200378,0 0.344311,0.10442 0.146756,0.10442 0.200378,0.28222 0.03951,0.12136 0.03951,0.34714 0,0.2286 -0.03951,0.34713 -0.05362,0.18344 -0.200378,0.28787 -0.143933,0.10442 -0.347133,0.10442 z m 0,-0.17498 q 0.135466,0 0.231422,-0.0734 0.09596,-0.0762 0.129822,-0.2032 0.0254,-0.1016 0.0254,-0.28504 0,-0.18627 -0.02258,-0.28505 -0.03387,-0.127 -0.132644,-0.20037 -0.09596,-0.0762 -0.234244,-0.0762 -0.138289,0 -0.234245,0.0762 -0.09596,0.0734 -0.129822,0.20037 -0.02258,0.0988 -0.02258,0.28505 0,0.18626 0.02258,0.28504 0.03104,0.127 0.127,0.2032 0.09878,0.0734 0.239889,0.0734 z"
             style="font-size:2.82222199px;fill:#1d1d1d;fill-opacity:1;stroke-width:0.26458332"
             id="path5905" />
          <path
             d="m 57.807881,179.25445 q 0.09313,0 0.160866,0.0367 0.02258,0.0113 0.01693,0.0367 l -0.03104,0.13829 q -0.0085,0.0282 -0.03669,0.0169 -0.04798,-0.0197 -0.110066,-0.0197 l -0.03669,0.003 q -0.146756,0.006 -0.242711,0.11007 -0.09596,0.1016 -0.09596,0.25964 v 0.83256 q 0,0.0282 -0.02822,0.0282 H 57.26037 q -0.02822,0 -0.02822,-0.0282 v -1.3716 q 0,-0.0282 0.02822,-0.0282 h 0.143933 q 0.02822,0 0.02822,0.0282 v 0.17215 q 0,0.008 0.0028,0.0113 0.0056,0 0.0085,-0.006 0.05927,-0.10442 0.149578,-0.16087 0.09313,-0.0593 0.214489,-0.0593 z"
             style="font-size:2.82222199px;fill:#1d1d1d;fill-opacity:1;stroke-width:0.26458332"
             id="path5907" />
        </g>
        <g
           aria-label="first color"
           transform="scale(-1,1)"
           style="font-style:normal;font-variant:normal;font-weight:normal;font-stretch:normal;font-size:2.82222199px;line-height:1.25;font-family:Barlow;-inkscape-font-specification:Barlow;letter-spacing:0px;word-spacing:0px;fill:#1d1d1d;fill-opacity:1;stroke-width:0.26458332"
           id="text6244">
          <path
             d="m -146.51698,151.45392 q -0.15523,0 -0.21167,0.0706 -0.0564,0.0677 -0.0564,0.23424 v 0.0564 q 0,0.0113 0.0113,0.0113 h 0.31609 q 0.0282,0 0.0282,0.0282 v 0.127 q 0,0.0282 -0.0282,0.0282 h -0.31609 q -0.0113,0 -0.0113,0.0113 v 1.20509 q 0,0.0282 -0.0282,0.0282 h -0.14111 q -0.0282,0 -0.0282,-0.0282 v -1.20509 q 0,-0.0113 -0.0113,-0.0113 h -0.18909 q -0.0282,0 -0.0282,-0.0282 v -0.127 q 0,-0.0282 0.0282,-0.0282 h 0.18909 q 0.0113,0 0.0113,-0.0113 v -0.0677 q 0,-0.17497 0.0395,-0.27375 0.0395,-0.1016 0.13547,-0.14676 0.0988,-0.048 0.27375,-0.048 h 0.0819 q 0.0282,0 0.0282,0.0282 v 0.11853 q 0,0.0282 -0.0282,0.0282 z m 0.57573,0.11289 q -0.0677,0 -0.11289,-0.0452 -0.0452,-0.0452 -0.0452,-0.11289 0,-0.0706 0.0452,-0.11289 0.0452,-0.0452 0.11289,-0.0452 0.0677,0 0.11289,0.0452 0.0452,0.0423 0.0452,0.11289 0,0.0677 -0.0452,0.11289 -0.0452,0.0452 -0.11289,0.0452 z m -0.079,1.68487 q -0.0282,0 -0.0282,-0.0282 v -1.3716 q 0,-0.0282 0.0282,-0.0282 h 0.14393 q 0.0282,0 0.0282,0.0282 v 1.3716 q 0,0.0282 -0.0282,0.0282 z"
             style="font-size:2.82222199px;fill:#1d1d1d;fill-opacity:1;stroke-width:0.26458332"
             id="path5847" />
          <path
             d="m -144.78039,151.81235 q 0.0931,0 0.16087,0.0367 0.0226,0.0113 0.0169,0.0367 l -0.031,0.13829 q -0.008,0.0282 -0.0367,0.0169 -0.048,-0.0198 -0.11007,-0.0198 l -0.0367,0.003 q -0.14675,0.006 -0.24271,0.11007 -0.096,0.1016 -0.096,0.25964 v 0.83256 q 0,0.0282 -0.0282,0.0282 h -0.14393 q -0.0282,0 -0.0282,-0.0282 v -1.3716 q 0,-0.0282 0.0282,-0.0282 h 0.14393 q 0.0282,0 0.0282,0.0282 v 0.17215 q 0,0.008 0.003,0.0113 0.006,0 0.008,-0.006 0.0593,-0.10442 0.14958,-0.16087 0.0931,-0.0593 0.21449,-0.0593 z"
             style="font-size:2.82222199px;fill:#1d1d1d;fill-opacity:1;stroke-width:0.26458332"
             id="path5849" />
          <path
             d="m -143.8734,153.26861 q -0.15804,0 -0.28222,-0.0508 -0.12136,-0.0508 -0.18909,-0.13546 -0.0649,-0.0847 -0.0649,-0.18909 v -0.0339 q 0,-0.0282 0.0282,-0.0282 h 0.13547 q 0.0282,0 0.0282,0.0282 v 0.0226 q 0,0.0931 0.096,0.16369 0.0988,0.0677 0.24553,0.0677 0.14675,0 0.23707,-0.0649 0.0903,-0.0677 0.0903,-0.16933 0,-0.0706 -0.048,-0.11572 -0.0452,-0.0452 -0.11007,-0.0705 -0.0621,-0.0254 -0.19473,-0.0649 -0.15805,-0.0452 -0.25965,-0.0903 -0.1016,-0.0452 -0.17215,-0.12418 -0.0677,-0.0819 -0.0677,-0.20602 0,-0.18063 0.14111,-0.28787 0.14111,-0.10724 0.37253,-0.10724 0.15522,0 0.27376,0.0508 0.12135,0.0508 0.18626,0.14111 0.0649,0.0875 0.0649,0.19755 v 0.008 q 0,0.0282 -0.0282,0.0282 h -0.13264 q -0.0282,0 -0.0282,-0.0282 v -0.008 q 0,-0.0959 -0.0931,-0.16086 -0.0903,-0.0649 -0.24553,-0.0649 -0.14394,0 -0.23142,0.0593 -0.0875,0.0564 -0.0875,0.15805 0,0.0959 0.0847,0.14675 0.0847,0.0508 0.26247,0.1016 0.16369,0.048 0.26529,0.0903 0.1016,0.0423 0.17498,0.12418 0.0734,0.079 0.0734,0.20884 0,0.18345 -0.14393,0.29352 -0.14393,0.11006 -0.381,0.11006 z"
             style="font-size:2.82222199px;fill:#1d1d1d;fill-opacity:1;stroke-width:0.26458332"
             id="path5851" />
          <path
             d="m -142.35077,151.96475 q 0,0.0282 -0.0282,0.0282 h -0.31891 q -0.0113,0 -0.0113,0.0113 v 0.83255 q 0,0.13547 0.0593,0.19191 0.0621,0.0536 0.19191,0.0536 h 0.0705 q 0.0282,0 0.0282,0.0282 v 0.11571 q 0,0.0282 -0.0282,0.0282 -0.0339,0.003 -0.10442,0.003 -0.2032,0 -0.30762,-0.0762 -0.10442,-0.0762 -0.10442,-0.28222 v -0.89464 q 0,-0.0113 -0.0113,-0.0113 h -0.17216 q -0.0282,0 -0.0282,-0.0282 v -0.11007 q 0,-0.0282 0.0282,-0.0282 h 0.17216 q 0.0113,0 0.0113,-0.0113 v -0.32738 q 0,-0.0282 0.0282,-0.0282 h 0.13829 q 0.0282,0 0.0282,0.0282 v 0.32738 q 0,0.0113 0.0113,0.0113 h 0.31891 q 0.0282,0 0.0282,0.0282 z"
             style="font-size:2.82222199px;fill:#1d1d1d;fill-opacity:1;stroke-width:0.26458332"
             id="path5853" />
          <path
             d="m -140.86487,153.27708 q -0.2032,0 -0.34995,-0.10442 -0.14393,-0.10725 -0.19756,-0.28787 -0.0367,-0.12418 -0.0367,-0.34996 0,-0.2032 0.0367,-0.34431 0.0508,-0.17497 0.19756,-0.2794 0.14675,-0.10724 0.34995,-0.10724 0.20603,0 0.3556,0.10442 0.1524,0.10442 0.19756,0.25965 0.0141,0.0508 0.0169,0.0847 v 0.006 q 0,0.0197 -0.0254,0.0254 l -0.14111,0.0198 h -0.006 q -0.0198,0 -0.0254,-0.0254 l -0.008,-0.0423 q -0.0254,-0.10725 -0.12418,-0.18062 -0.0988,-0.0762 -0.23989,-0.0762 -0.14111,0 -0.23706,0.0762 -0.0931,0.0734 -0.12136,0.19755 -0.0254,0.10725 -0.0254,0.28505 0,0.18626 0.0254,0.28786 0.0282,0.127 0.12136,0.2032 0.096,0.0734 0.23706,0.0734 0.13829,0 0.23707,-0.0705 0.1016,-0.0734 0.127,-0.18627 v -0.0113 l 0.003,-0.0113 q 0.003,-0.0282 0.0339,-0.0226 l 0.13829,0.0226 q 0.0282,0.006 0.0254,0.031 l -0.0113,0.0564 q -0.0423,0.16369 -0.19473,0.26529 -0.1524,0.1016 -0.35843,0.1016 z"
             style="font-size:2.82222199px;fill:#1d1d1d;fill-opacity:1;stroke-width:0.26458332"
             id="path5855" />
          <path
             d="m -139.40401,153.27708 q -0.2032,0 -0.34996,-0.10442 -0.14675,-0.10443 -0.2032,-0.28787 -0.0395,-0.12982 -0.0395,-0.34713 0,-0.21731 0.0395,-0.34431 0.0536,-0.18063 0.20038,-0.28505 0.14675,-0.10442 0.3556,-0.10442 0.20038,0 0.34431,0.10442 0.14676,0.10442 0.20038,0.28222 0.0395,0.12136 0.0395,0.34714 0,0.2286 -0.0395,0.34713 -0.0536,0.18344 -0.20038,0.28787 -0.14393,0.10442 -0.34713,0.10442 z m 0,-0.17498 q 0.13546,0 0.23142,-0.0734 0.096,-0.0762 0.12982,-0.2032 0.0254,-0.1016 0.0254,-0.28504 0,-0.18627 -0.0226,-0.28505 -0.0339,-0.127 -0.13264,-0.20037 -0.096,-0.0762 -0.23425,-0.0762 -0.13828,0 -0.23424,0.0762 -0.096,0.0734 -0.12982,0.20037 -0.0226,0.0988 -0.0226,0.28505 0,0.18627 0.0226,0.28504 0.031,0.127 0.127,0.2032 0.0988,0.0734 0.23989,0.0734 z"
             style="font-size:2.82222199px;fill:#1d1d1d;fill-opacity:1;stroke-width:0.26458332"
             id="path5857" />
          <path
             d="m -138.38259,153.2545 q -0.0282,0 -0.0282,-0.0282 v -1.91911 q 0,-0.0282 0.0282,-0.0282 h 0.14393 q 0.0282,0 0.0282,0.0282 v 1.91911 q 0,0.0282 -0.0282,0.0282 z"
             style="font-size:2.82222199px;fill:#1d1d1d;fill-opacity:1;stroke-width:0.26458332"
             id="path5859" />
          <path
             d="m -137.21569,153.27708 q -0.2032,0 -0.34995,-0.10442 -0.14676,-0.10443 -0.2032,-0.28787 -0.0395,-0.12982 -0.0395,-0.34713 0,-0.21731 0.0395,-0.34431 0.0536,-0.18063 0.20037,-0.28505 0.14676,-0.10442 0.3556,-0.10442 0.20038,0 0.34431,0.10442 0.14676,0.10442 0.20038,0.28222 0.0395,0.12136 0.0395,0.34714 0,0.2286 -0.0395,0.34713 -0.0536,0.18344 -0.20038,0.28787 -0.14393,0.10442 -0.34713,0.10442 z m 0,-0.17498 q 0.13547,0 0.23142,-0.0734 0.096,-0.0762 0.12983,-0.2032 0.0254,-0.1016 0.0254,-0.28504 0,-0.18627 -0.0226,-0.28505 -0.0339,-0.127 -0.13265,-0.20037 -0.0959,-0.0762 -0.23424,-0.0762 -0.13829,0 -0.23425,0.0762 -0.0959,0.0734 -0.12982,0.20037 -0.0226,0.0988 -0.0226,0.28505 0,0.18627 0.0226,0.28504 0.031,0.127 0.127,0.2032 0.0988,0.0734 0.23989,0.0734 z"
             style="font-size:2.82222199px;fill:#1d1d1d;fill-opacity:1;stroke-width:0.26458332"
             id="path5861" />
          <path
             d="m -135.64675,151.81235 q 0.0931,0 0.16086,0.0367 0.0226,0.0113 0.0169,0.0367 l -0.031,0.13829 q -0.008,0.0282 -0.0367,0.0169 -0.048,-0.0198 -0.11006,-0.0198 l -0.0367,0.003 q -0.14676,0.006 -0.24271,0.11007 -0.096,0.1016 -0.096,0.25964 v 0.83256 q 0,0.0282 -0.0282,0.0282 h -0.14394 q -0.0282,0 -0.0282,-0.0282 v -1.3716 q 0,-0.0282 0.0282,-0.0282 h 0.14394 q 0.0282,0 0.0282,0.0282 v 0.17215 q 0,0.008 0.003,0.0113 0.006,0 0.008,-0.006 0.0593,-0.10442 0.14958,-0.16087 0.0931,-0.0593 0.21449,-0.0593 z"
             style="font-size:2.82222199px;fill:#1d1d1d;fill-opacity:1;stroke-width:0.26458332"
             id="path5863" />
        </g>
      </g>
      <g
         aria-label="CMY"
         style="font-style:normal;font-variant:normal;font-weight:normal;font-stretch:normal;font-size:10.97036266px;line-height:1.25;font-family:Barlow;-inkscape-font-specification:Barlow;text-align:center;letter-spacing:0px;word-spacing:0px;text-anchor:middle;fill:#000000;fill-opacity:1;stroke-width:0.68564767"
         id="text6268">
        <path
           d="m 249.92931,154.86611 q -0.76793,0 -1.34936,-0.2962 -0.58143,-0.30717 -0.91054,-0.85569 -0.31814,-0.55948 -0.31814,-1.28353 v -3.01685 q 0,-0.71307 0.31814,-1.26159 0.32911,-0.54852 0.91054,-0.84472 0.58143,-0.30717 1.34936,-0.30717 0.76792,0 1.34935,0.2962 0.58143,0.2962 0.89957,0.83375 0.32911,0.53755 0.32911,1.23965 0,0.0549 -0.0329,0.0878 -0.0329,0.0329 -0.0768,0.0329 l -0.55949,0.0329 q -0.1097,0 -0.1097,-0.0987 v -0.0329 q 0,-0.77889 -0.49367,-1.23965 -0.49367,-0.47172 -1.30547,-0.47172 -0.81181,0 -1.30548,0.47172 -0.49366,0.47173 -0.49366,1.23965 v 3.0717 q 0,0.76793 0.49366,1.23965 0.49367,0.47173 1.30548,0.47173 0.8118,0 1.30547,-0.46076 0.49367,-0.47172 0.49367,-1.25062 v -0.0219 q 0,-0.0987 0.1097,-0.0987 l 0.55949,0.0329 q 0.1097,0 0.1097,0.0987 0,0.71308 -0.32911,1.2616 -0.31814,0.53754 -0.89957,0.83374 -0.58143,0.2962 -1.34935,0.2962 z"
           style="text-align:center;text-anchor:middle;fill:#000000;fill-opacity:1;stroke-width:0.68564767"
           id="path5833" />
        <path
           d="m 259.2368,147.16492 q 0.0548,-0.0768 0.13165,-0.0768 h 0.57045 q 0.10971,0 0.10971,0.1097 v 7.45985 q 0,0.1097 -0.10971,0.1097 h -0.55948 q -0.10971,0 -0.10971,-0.1097 v -6.09953 q 0,-0.0329 -0.0219,-0.0439 -0.0219,-0.011 -0.0329,0.0219 l -1.78817,2.74259 q -0.0548,0.0768 -0.13164,0.0768 h -0.28523 q -0.0768,0 -0.13165,-0.0658 L 255.09,148.56912 q -0.011,-0.0329 -0.0329,-0.0219 -0.0219,0.011 -0.0219,0.0439 v 6.06661 q 0,0.1097 -0.1097,0.1097 h -0.55949 q -0.1097,0 -0.1097,-0.1097 v -7.45985 q 0,-0.1097 0.1097,-0.1097 h 0.57046 q 0.0878,0 0.13164,0.0658 l 2.06243,3.12655 q 0.011,0.011 0.0329,0.011 0.0219,0 0.0329,-0.011 z"
           style="text-align:center;text-anchor:middle;fill:#000000;fill-opacity:1;stroke-width:0.68564767"
           id="path5835" />
        <path
           d="m 263.89749,154.75641 q -0.1097,0 -0.1097,-0.1097 v -3.24723 q 0,-0.0439 -0.011,-0.0549 l -2.28184,-4.12486 q -0.0219,-0.0439 -0.0219,-0.0658 0,-0.0658 0.0987,-0.0658 h 0.5924 q 0.0987,0 0.13165,0.0768 l 1.84302,3.34596 q 0.011,0.011 0.0329,0.011 0.0219,0 0.0329,-0.011 l 1.85399,-3.34596 q 0.0439,-0.0768 0.13165,-0.0768 h 0.5924 q 0.0658,0 0.0878,0.0439 0.0219,0.0329 -0.011,0.0878 l -2.28184,4.12486 q -0.011,0.011 -0.011,0.0549 v 3.24723 q 0,0.1097 -0.1097,0.1097 z"
           style="text-align:center;text-anchor:middle;fill:#000000;fill-opacity:1;stroke-width:0.68564767"
           id="path5837" />
      </g>
      <g
         aria-label="BCG"
         style="font-style:normal;font-variant:normal;font-weight:normal;font-stretch:normal;font-size:10.97036266px;line-height:1.25;font-family:Barlow;-inkscape-font-specification:Barlow;text-align:center;letter-spacing:0px;word-spacing:0px;text-anchor:middle;fill:#000000;fill-opacity:1;stroke-width:0.68564767"
         id="text6292">
        <path
           d="m 336.50038,150.7632 q -0.0548,0.0329 0,0.0658 0.5924,0.24135 0.89957,0.71307 0.30717,0.47173 0.30717,1.14092 0,0.98733 -0.63628,1.53585 -0.62531,0.54852 -1.65653,0.54852 h -2.65482 q -0.10971,0 -0.10971,-0.1097 v -7.45985 q 0,-0.1097 0.10971,-0.1097 h 2.57803 q 1.06413,0 1.6675,0.52657 0.61434,0.52658 0.61434,1.481 0,0.60337 -0.2962,1.03122 -0.28523,0.41687 -0.82278,0.63628 z m -3.02782,-2.99491 q -0.0439,0 -0.0439,0.0439 v 2.63289 q 0,0.0439 0.0439,0.0439 h 1.86496 q 0.69113,0 1.09704,-0.36202 0.41687,-0.36203 0.41687,-0.9654 0,-0.63628 -0.41687,-1.00927 -0.40591,-0.38396 -1.09704,-0.38396 z m 1.94175,6.30796 q 0.69114,0 1.09704,-0.39494 0.41687,-0.39493 0.41687,-1.06412 0,-0.66919 -0.42784,-1.06413 -0.41687,-0.4059 -1.12995,-0.4059 h -1.89787 q -0.0439,0 -0.0439,0.0439 v 2.84133 q 0,0.0439 0.0439,0.0439 z"
           style="text-align:center;text-anchor:middle;fill:#000000;fill-opacity:1;stroke-width:0.68564767"
           id="path5826" />
        <path
           d="m 341.84295,154.86611 q -0.76793,0 -1.34936,-0.2962 -0.58143,-0.30717 -0.91054,-0.85569 -0.31814,-0.55948 -0.31814,-1.28353 v -3.01685 q 0,-0.71307 0.31814,-1.26159 0.32911,-0.54852 0.91054,-0.84472 0.58143,-0.30717 1.34936,-0.30717 0.76792,0 1.34935,0.2962 0.58143,0.2962 0.89957,0.83375 0.32911,0.53755 0.32911,1.23965 0,0.0549 -0.0329,0.0878 -0.0329,0.0329 -0.0768,0.0329 l -0.55949,0.0329 q -0.1097,0 -0.1097,-0.0987 v -0.0329 q 0,-0.77889 -0.49367,-1.23965 -0.49367,-0.47172 -1.30547,-0.47172 -0.81181,0 -1.30548,0.47172 -0.49366,0.47173 -0.49366,1.23965 v 3.0717 q 0,0.76793 0.49366,1.23965 0.49367,0.47173 1.30548,0.47173 0.8118,0 1.30547,-0.46076 0.49367,-0.47172 0.49367,-1.25062 v -0.0219 q 0,-0.0987 0.1097,-0.0987 l 0.55949,0.0329 q 0.1097,0 0.1097,0.0987 0,0.71308 -0.32911,1.2616 -0.31814,0.53754 -0.89957,0.83374 -0.58143,0.2962 -1.34935,0.2962 z"
           style="text-align:center;text-anchor:middle;fill:#000000;fill-opacity:1;stroke-width:0.68564767"
           id="path5828" />
        <path
           d="m 348.50658,154.85514 q -0.76792,0 -1.34935,-0.2962 -0.58143,-0.30717 -0.91054,-0.85569 -0.31814,-0.54851 -0.31814,-1.26159 v -3.02782 q 0,-0.71307 0.31814,-1.26159 0.32911,-0.54852 0.91054,-0.84472 0.58143,-0.30717 1.34935,-0.30717 0.75696,0 1.33839,0.2962 0.5924,0.2962 0.91054,0.83375 0.31814,0.52658 0.31814,1.19577 v 0.14261 q 0,0.10971 -0.1097,0.10971 h -0.55949 q -0.10971,0 -0.10971,-0.10971 v -0.13164 q 0,-0.73501 -0.49366,-1.19577 -0.4827,-0.46075 -1.29451,-0.46075 -0.8118,0 -1.30547,0.47172 -0.49367,0.47173 -0.49367,1.23965 v 3.0717 q 0,0.76793 0.50464,1.23965 0.50464,0.47173 1.32742,0.47173 0.80083,0 1.27256,-0.43881 0.48269,-0.43882 0.48269,-1.17383 v -0.99831 q 0,-0.0439 -0.0439,-0.0439 h -1.61264 q -0.10971,0 -0.10971,-0.1097 v -0.46076 q 0,-0.1097 0.10971,-0.1097 h 2.32572 q 0.1097,0 0.1097,0.1097 v 1.41518 q 0,1.17383 -0.7021,1.83205 -0.69114,0.65822 -1.86497,0.65822 z"
           style="text-align:center;text-anchor:middle;fill:#000000;fill-opacity:1;stroke-width:0.68564767"
           id="path5830" />
      </g>
      <g
         transform="matrix(2.5914244,0,0,2.5914244,-193.86392,-141.94249)"
         clip-path="url(#clipPath6008)"
         id="g2735">
        <g
           style="fill:#ff0000;fill-opacity:1"
           id="g2721">
          <circle
             r="3.7206261"
             cy="98.747467"
             cx="141.41902"
             id="circle2717"
             style="opacity:0.75;fill:#ff0000;fill-opacity:1;stroke:none;stroke-width:2.45144987;stroke-linecap:square;stroke-linejoin:bevel;stroke-miterlimit:100;stroke-dasharray:none;stroke-opacity:1;filter:url(#filter5242)"
             transform="matrix(1.61569,0,0,1.1242545,-87.070289,-12.011684)" />
          <circle
             style="opacity:1;fill:#ff0000;fill-opacity:1;stroke:none;stroke-width:0.58019084;stroke-linecap:square;stroke-linejoin:bevel;stroke-miterlimit:100;stroke-dasharray:none;stroke-opacity:1"
             id="circle2719"
             cx="141.41902"
             cy="99.0056"
             r="0.88057005" />
        </g>
        <g
           style="fill:#0000ff;fill-opacity:1"
           transform="rotate(120,141.42615,94.862824)"
           id="g2727">
          <circle
             transform="matrix(1.61569,0,0,1.1242545,-87.070289,-12.011684)"
             style="opacity:0.75;fill:#0000ff;fill-opacity:1;stroke:none;stroke-width:2.45144987;stroke-linecap:square;stroke-linejoin:bevel;stroke-miterlimit:100;stroke-dasharray:none;stroke-opacity:1;filter:url(#filter5246)"
             id="circle2723"
             cx="141.41902"
             cy="98.747467"
             r="3.7206261" />
          <circle
             r="0.88057005"
             cy="99.0056"
             cx="141.41902"
             id="circle2725"
             style="opacity:1;fill:#0000ff;fill-opacity:1;stroke:none;stroke-width:0.58019084;stroke-linecap:square;stroke-linejoin:bevel;stroke-miterlimit:100;stroke-dasharray:none;stroke-opacity:1" />
        </g>
        <g
           style="fill:#00ff00;fill-opacity:1"
           id="g2733"
           transform="rotate(-120,141.37338,94.929562)">
          <circle
             r="3.7206261"
             cy="98.747467"
             cx="141.41902"
             id="circle2729"
             style="opacity:0.75;fill:#00ff00;fill-opacity:1;stroke:none;stroke-width:2.45144987;stroke-linecap:square;stroke-linejoin:bevel;stroke-miterlimit:100;stroke-dasharray:none;stroke-opacity:1;filter:url(#filter5250)"
             transform="matrix(1.61569,0,0,1.1242545,-87.070289,-12.011684)" />
          <circle
             style="opacity:1;fill:#00ff00;fill-opacity:1;stroke:none;stroke-width:0.58019084;stroke-linecap:square;stroke-linejoin:bevel;stroke-miterlimit:100;stroke-dasharray:none;stroke-opacity:1"
             id="circle2731"
             cx="141.41902"
             cy="99.0056"
             r="0.88057005" />
        </g>
      </g>
      <g
         transform="matrix(2.5914244,0,0,2.5914244,-193.86392,-141.94249)"
         id="g2755"
         clip-path="url(#clipPath6072)">
        <g
           transform="translate(32.731593)"
           id="g2741"
           style="fill:#00ffff;fill-opacity:1">
          <circle
             transform="matrix(1.61569,0,0,1.1242545,-87.070289,-12.011684)"
             style="opacity:0.75;fill:#00ffff;fill-opacity:1;stroke:none;stroke-width:2.45144987;stroke-linecap:square;stroke-linejoin:bevel;stroke-miterlimit:100;stroke-dasharray:none;stroke-opacity:1;filter:url(#filter5242)"
             id="circle2737"
             cx="141.41902"
             cy="98.747467"
             r="3.7206261" />
          <circle
             r="0.88057005"
             cy="99.0056"
             cx="141.41902"
             id="circle2739"
             style="opacity:1;fill:#00ffff;fill-opacity:1;stroke:none;stroke-width:0.58019084;stroke-linecap:square;stroke-linejoin:bevel;stroke-miterlimit:100;stroke-dasharray:none;stroke-opacity:1" />
        </g>
        <g
           id="g2747"
           transform="rotate(120,157.79195,104.31162)"
           style="fill:#ffff00;fill-opacity:1">
          <circle
             r="3.7206261"
             cy="98.747467"
             cx="141.41902"
             id="circle2743"
             style="opacity:0.75;fill:#ffff00;fill-opacity:1;stroke:none;stroke-width:2.45144987;stroke-linecap:square;stroke-linejoin:bevel;stroke-miterlimit:100;stroke-dasharray:none;stroke-opacity:1;filter:url(#filter5246)"
             transform="matrix(1.61569,0,0,1.1242545,-87.070289,-12.011684)" />
          <circle
             style="opacity:1;fill:#ffff00;fill-opacity:1;stroke:none;stroke-width:0.58019084;stroke-linecap:square;stroke-linejoin:bevel;stroke-miterlimit:100;stroke-dasharray:none;stroke-opacity:1"
             id="circle2745"
             cx="141.41902"
             cy="99.0056"
             r="0.88057005" />
        </g>
        <g
           transform="rotate(-120,157.73918,85.480765)"
           id="g2753"
           style="fill:#ff00ff;fill-opacity:1">
          <circle
             transform="matrix(1.61569,0,0,1.1242545,-87.070289,-12.011684)"
             style="opacity:0.75;fill:#ff00ff;fill-opacity:1;stroke:none;stroke-width:2.45144987;stroke-linecap:square;stroke-linejoin:bevel;stroke-miterlimit:100;stroke-dasharray:none;stroke-opacity:1;filter:url(#filter5250)"
             id="circle2749"
             cx="141.41902"
             cy="98.747467"
             r="3.7206261" />
          <circle
             r="0.88057005"
             cy="99.0056"
             cx="141.41902"
             id="circle2751"
             style="opacity:1;fill:#ff00ff;fill-opacity:1;stroke:none;stroke-width:0.58019084;stroke-linecap:square;stroke-linejoin:bevel;stroke-miterlimit:100;stroke-dasharray:none;stroke-opacity:1" />
        </g>
      </g>
      <g
         transform="matrix(2.5914244,0,0,2.5914244,-193.86392,-141.94249)"
         clip-path="url(#clipPath6093)"
         id="g2775">
        <g
           style="fill:#0000ff;fill-opacity:1"
           id="g2761"
           transform="translate(65.463192)">
          <circle
             r="3.7206261"
             cy="98.747467"
             cx="141.41902"
             id="circle2757"
             style="opacity:0.75;fill:#0000ff;fill-opacity:1;stroke:none;stroke-width:2.45144987;stroke-linecap:square;stroke-linejoin:bevel;stroke-miterlimit:100;stroke-dasharray:none;stroke-opacity:1;filter:url(#filter5242)"
             transform="matrix(1.61569,0,0,1.1242545,-87.070289,-12.011684)" />
          <circle
             style="opacity:1;fill:#0000ff;fill-opacity:1;stroke:none;stroke-width:0.58019084;stroke-linecap:square;stroke-linejoin:bevel;stroke-miterlimit:100;stroke-dasharray:none;stroke-opacity:1"
             id="circle2759"
             cx="141.41902"
             cy="99.0056"
             r="0.88057005" />
        </g>
        <g
           style="fill:#00ff00;fill-opacity:1"
           transform="rotate(120,174.15775,113.76042)"
           id="g2767">
          <circle
             transform="matrix(1.61569,0,0,1.1242545,-87.070289,-12.011684)"
             style="opacity:0.75;fill:#00ff00;fill-opacity:1;stroke:none;stroke-width:2.45144987;stroke-linecap:square;stroke-linejoin:bevel;stroke-miterlimit:100;stroke-dasharray:none;stroke-opacity:1;filter:url(#filter5246)"
             id="circle2763"
             cx="141.41902"
             cy="98.747467"
             r="3.7206261" />
          <circle
             r="0.88057005"
             cy="99.0056"
             cx="141.41902"
             id="circle2765"
             style="opacity:1;fill:#00ff00;fill-opacity:1;stroke:none;stroke-width:0.58019084;stroke-linecap:square;stroke-linejoin:bevel;stroke-miterlimit:100;stroke-dasharray:none;stroke-opacity:1" />
        </g>
        <g
           style="fill:#00ffff;fill-opacity:1"
           id="g2773"
           transform="rotate(-120,174.10498,76.031966)">
          <circle
             r="3.7206261"
             cy="98.747467"
             cx="141.41902"
             id="circle2769"
             style="opacity:0.75;fill:#00ffff;fill-opacity:1;stroke:none;stroke-width:2.45144987;stroke-linecap:square;stroke-linejoin:bevel;stroke-miterlimit:100;stroke-dasharray:none;stroke-opacity:1;filter:url(#filter5250)"
             transform="matrix(1.61569,0,0,1.1242545,-87.070289,-12.011684)" />
          <circle
             style="opacity:1;fill:#00ffff;fill-opacity:1;stroke:none;stroke-width:0.58019084;stroke-linecap:square;stroke-linejoin:bevel;stroke-miterlimit:100;stroke-dasharray:none;stroke-opacity:1"
             id="circle2771"
             cx="141.41902"
             cy="99.0056"
             r="0.88057005" />
        </g>
      </g>
    </g>
  </g>
</svg>
