<?xml version="1.0" encoding="UTF-8" standalone="no"?>
<svg
   xmlns:osb="http://www.openswatchbook.org/uri/2009/osb"
   xmlns:dc="http://purl.org/dc/elements/1.1/"
   xmlns:cc="http://creativecommons.org/ns#"
   xmlns:rdf="http://www.w3.org/1999/02/22-rdf-syntax-ns#"
   xmlns:svg="http://www.w3.org/2000/svg"
   xmlns="http://www.w3.org/2000/svg"
   xmlns:xlink="http://www.w3.org/1999/xlink"
   xmlns:sodipodi="http://sodipodi.sourceforge.net/DTD/sodipodi-0.dtd"
   xmlns:inkscape="http://www.inkscape.org/namespaces/inkscape"
   sodipodi:docname="color_id_examples.svg"
   inkscape:version="0.92.4 (5da689c313, 2019-01-14)"
   id="svg1003"
   version="1.1"
   viewBox="0 0 104.54996 44.815546"
   height="169.38161"
   width="395.14948"
   inkscape:export-filename="D:\Development\KYANIT\kyanit_eu\avatar.png"
   inkscape:export-xdpi="994.35156"
   inkscape:export-ydpi="994.35156">
  <defs
     id="defs997">
    <marker
       inkscape:isstock="true"
       style="overflow:visible"
       id="marker6302"
       refX="0"
       refY="0"
       orient="auto"
       inkscape:stockid="Arrow1Mend">
      <path
         inkscape:connector-curvature="0"
         transform="matrix(-0.4,0,0,-0.4,-4,0)"
         style="fill:#121212;fill-opacity:1;fill-rule:evenodd;stroke:#121212;stroke-width:1.00000003pt;stroke-opacity:1"
         d="M 0,0 5,-5 -12.5,0 5,5 Z"
         id="path6300" />
    </marker>
    <marker
       inkscape:stockid="Arrow2Send"
       orient="auto"
       refY="0"
       refX="0"
       id="Arrow2Send"
       style="overflow:visible"
       inkscape:isstock="true">
      <path
         id="path5354"
         style="fill:#909090;fill-opacity:1;fill-rule:evenodd;stroke:#909090;stroke-width:0.625;stroke-linejoin:round;stroke-opacity:1"
         d="M 8.7185878,4.0337352 -2.2072895,0.01601326 8.7185884,-4.0017078 c -1.7454984,2.3720609 -1.7354408,5.6174519 -6e-7,8.035443 z"
         transform="matrix(-0.3,0,0,-0.3,0.69,0)"
         inkscape:connector-curvature="0" />
    </marker>
    <linearGradient
       id="linearGradient825"
       osb:paint="solid"
       gradientTransform="matrix(0,0.08369619,-0.0836962,0,180.28423,98.486343)">
      <stop
         style="stop-color:#dda256;stop-opacity:1;"
         offset="0"
         id="stop823" />
    </linearGradient>
    <linearGradient
       id="linearGradient1404"
       osb:paint="solid"
       gradientTransform="matrix(0.24464609,0,0,0.24464609,-10.703032,290.63996)">
      <stop
         style="stop-color:#a1a1a1;stop-opacity:1;"
         offset="0"
         id="stop1402" />
    </linearGradient>
    <filter
       inkscape:collect="always"
       style="color-interpolation-filters:sRGB"
       id="filter5242"
       x="-0.60989022"
       width="2.2197804"
       y="-0.60989022"
       height="2.2197804">
      <feGaussianBlur
         inkscape:collect="always"
         stdDeviation="1.890978"
         id="feGaussianBlur5244" />
    </filter>
    <filter
       inkscape:collect="always"
       style="color-interpolation-filters:sRGB"
       id="filter5246"
       x="-0.78829581"
       width="2.5765917"
       y="-0.46020892"
       height="1.9204178">
      <feGaussianBlur
         inkscape:collect="always"
         stdDeviation="1.9138326"
         id="feGaussianBlur5248" />
    </filter>
    <filter
       inkscape:collect="always"
       style="color-interpolation-filters:sRGB"
       id="filter5250"
       x="-0.78829581"
       width="2.5765917"
       y="-0.46020892"
       height="1.9204178">
      <feGaussianBlur
         inkscape:collect="always"
         stdDeviation="1.9138326"
         id="feGaussianBlur5252" />
    </filter>
    <clipPath
       clipPathUnits="userSpaceOnUse"
       id="clipPath6008">
      <path
         style="opacity:1;fill:none;fill-opacity:1;stroke:url(#linearGradient6012);stroke-width:0.57554638;stroke-linecap:square;stroke-linejoin:bevel;stroke-miterlimit:100;stroke-dasharray:none;stroke-opacity:1"
         d="m 129.12394,98.501928 3.91499,-6.781114 1.476,0.852169 0.67319,-1.166023 -1.47602,-0.852196 1.47751,0.853019 0.67319,-1.166032 -1.47753,-0.853027 3.86884,-6.700891 6.27583,-1.62e-4 3.53027,6.118687 -1.35054,0.779739 0.67336,1.166298 1.35054,-0.779739 -1.35207,0.78062 0.33668,0.583144 0.33668,0.583144 1.35208,-0.78062 -1.35056,0.779739 0.67337,1.166297 1.35055,-0.77974 3.60801,6.245196 -3.06361,5.306474 -8.55926,-8e-5 3e-5,-1.62905 -0.67333,5e-5 -0.67333,5e-5 0.0282,1.62908 -8.53143,-1.7e-4 z m 8.69479,-1.450025 7.14657,-4.6e-5 -3.57325,-6.189063 z"
         id="path6010"
         inkscape:connector-curvature="0"
         sodipodi:nodetypes="cccccccccccccccccccccccccccccccccc" />
    </clipPath>
    <linearGradient
       inkscape:collect="always"
       xlink:href="#linearGradient1404"
       id="linearGradient6012"
       gradientUnits="userSpaceOnUse"
       gradientTransform="matrix(0.54382341,0.94192976,0.94192976,-0.54382341,-25.376176,10.864896)"
       x1="132.05511"
       y1="92.499763"
       x2="155.30794"
       y2="92.499763" />
    <clipPath
       clipPathUnits="userSpaceOnUse"
       id="clipPath6072">
      <path
         style="opacity:1;fill:none;fill-opacity:1;stroke:url(#linearGradient6076);stroke-width:0.57554638;stroke-linecap:square;stroke-linejoin:bevel;stroke-miterlimit:100;stroke-dasharray:none;stroke-opacity:1"
         d="m 161.85553,98.501928 3.91499,-6.781114 1.476,0.852169 0.67319,-1.166023 -1.47602,-0.852196 1.47751,0.853019 0.67319,-1.166032 -1.47753,-0.853027 3.86884,-6.700891 6.27583,-1.62e-4 3.53027,6.118687 -1.35054,0.779739 0.67336,1.166298 1.35054,-0.779739 -1.35207,0.78062 0.33668,0.583144 0.33668,0.583144 1.35208,-0.78062 -1.35056,0.779739 0.67337,1.166297 1.35055,-0.77974 3.60801,6.245196 -3.06361,5.306474 -8.55926,-8e-5 3e-5,-1.62905 -0.67333,5e-5 -0.67333,5e-5 0.0282,1.62908 -8.53143,-1.7e-4 z m 8.69479,-1.450025 7.14657,-4.6e-5 -3.57325,-6.189063 z"
         id="path6074"
         inkscape:connector-curvature="0"
         sodipodi:nodetypes="cccccccccccccccccccccccccccccccccc" />
    </clipPath>
    <linearGradient
       inkscape:collect="always"
       xlink:href="#linearGradient1404"
       id="linearGradient6076"
       gradientUnits="userSpaceOnUse"
       gradientTransform="matrix(0.54382341,0.94192976,0.94192976,-0.54382341,7.3554183,10.864896)"
       x1="132.05511"
       y1="92.499763"
       x2="155.30794"
       y2="92.499763" />
    <clipPath
       clipPathUnits="userSpaceOnUse"
       id="clipPath6093">
      <path
         style="opacity:1;fill:none;fill-opacity:1;stroke:url(#linearGradient6097);stroke-width:0.57554638;stroke-linecap:square;stroke-linejoin:bevel;stroke-miterlimit:100;stroke-dasharray:none;stroke-opacity:1"
         d="m 194.58713,98.501928 3.91499,-6.781114 1.476,0.852169 0.67319,-1.166023 -1.47602,-0.852196 1.47751,0.853019 0.67319,-1.166032 -1.47753,-0.853027 3.86884,-6.700891 6.27583,-1.62e-4 3.53027,6.118687 -1.35054,0.779739 0.67336,1.166298 1.35054,-0.779739 -1.35207,0.78062 0.33668,0.583144 0.33668,0.583144 1.35208,-0.78062 -1.35056,0.779739 0.67337,1.166297 1.35055,-0.77974 3.60801,6.245196 -3.06361,5.306474 -8.55926,-8e-5 3e-5,-1.62905 -0.67333,5e-5 -0.67333,5e-5 0.0282,1.62908 -8.53143,-1.7e-4 z m 8.69479,-1.450025 7.14657,-4.6e-5 -3.57325,-6.189063 z"
         id="path6095"
         inkscape:connector-curvature="0"
         sodipodi:nodetypes="cccccccccccccccccccccccccccccccccc" />
    </clipPath>
    <linearGradient
       inkscape:collect="always"
       xlink:href="#linearGradient1404"
       id="linearGradient6097"
       gradientUnits="userSpaceOnUse"
       gradientTransform="matrix(0.54382341,0.94192976,0.94192976,-0.54382341,40.087018,10.864896)"
       x1="132.05511"
       y1="92.499763"
       x2="155.30794"
       y2="92.499763" />
    <linearGradient
       inkscape:collect="always"
       xlink:href="#linearGradient1404"
       id="linearGradient6294"
       gradientUnits="userSpaceOnUse"
       gradientTransform="matrix(0.5438234,0.94192976,0.94192976,-0.5438234,40.087017,55.680445)"
       x1="132.05511"
       y1="92.499763"
       x2="155.30794"
       y2="92.499763" />
    <linearGradient
       inkscape:collect="always"
       xlink:href="#linearGradient1404"
       id="linearGradient6296"
       gradientUnits="userSpaceOnUse"
       gradientTransform="matrix(0.5438234,0.94192976,0.94192976,-0.5438234,7.3554183,55.680445)"
       x1="132.05511"
       y1="92.499763"
       x2="155.30794"
       y2="92.499763" />
    <linearGradient
       inkscape:collect="always"
       xlink:href="#linearGradient1404"
       id="linearGradient6298"
       gradientUnits="userSpaceOnUse"
       gradientTransform="matrix(0.5438234,0.94192976,0.94192976,-0.5438234,-25.376175,55.680445)"
       x1="132.05511"
       y1="92.499763"
       x2="155.30794"
       y2="92.499763" />
  </defs>
  <sodipodi:namedview
     inkscape:window-maximized="1"
     inkscape:window-y="1072"
     inkscape:window-x="1432"
     inkscape:window-height="1017"
     inkscape:window-width="1920"
     inkscape:pagecheckerboard="true"
     units="px"
     inkscape:showpageshadow="false"
     showgrid="false"
     inkscape:document-rotation="0"
     inkscape:current-layer="layer1"
     inkscape:document-units="px"
     inkscape:cy="-29.2172"
     inkscape:cx="288.24718"
     inkscape:zoom="1.0997993"
     inkscape:pageshadow="2"
     inkscape:pageopacity="0"
     borderopacity="1"
     bordercolor="#ff00ff"
     pagecolor="#ffffff"
     id="base"
     fit-margin-top="0"
     fit-margin-bottom="0"
     fit-margin-left="0"
     fit-margin-right="0"
     inkscape:snap-bbox="true"
     inkscape:bbox-paths="true"
     inkscape:bbox-nodes="true"
     inkscape:snap-bbox-edge-midpoints="true"
     inkscape:snap-bbox-midpoints="true"
     inkscape:snap-object-midpoints="true"
     inkscape:snap-center="true"
     showguides="false"
     inkscape:guide-bbox="true"
     inkscape:snap-global="true"
     showborder="true"
     inkscape:snap-page="true">
    <sodipodi:guide
       position="30.880693,64.043194"
       orientation="-0.00015874017,-24.83403"
       id="guide829"
       inkscape:locked="false" />
    <sodipodi:guide
       position="11.138293,59.164449"
       orientation="-21.506738,12.41692"
       id="guide831"
       inkscape:locked="false" />
    <sodipodi:guide
       position="16.690243,78.627528"
       orientation="21.506896,12.417109"
       id="guide833"
       inkscape:locked="false" />
    <sodipodi:guide
       position="19.601215,71.111336"
       orientation="-13.105097,0.00011338583"
       id="guide843"
       inkscape:locked="false" />
    <sodipodi:guide
       position="22.886575,65.420971"
       orientation="6.5525295,11.349242"
       id="guide847"
       inkscape:locked="false" />
    <sodipodi:guide
       position="16.315904,65.421013"
       orientation="6.5526051,-11.349355"
       id="guide849"
       inkscape:locked="false" />
    <inkscape:grid
       type="xygrid"
       id="grid1513"
       originx="6.5146336"
       originy="55.817305" />
  </sodipodi:namedview>
  <metadata
     id="metadata1000">
    <rdf:RDF>
      <cc:Work
         rdf:about="">
        <dc:format>image/svg+xml</dc:format>
        <dc:type
           rdf:resource="http://purl.org/dc/dcmitype/StillImage" />
        <dc:title></dc:title>
      </cc:Work>
    </rdf:RDF>
  </metadata>
  <g
     id="layer1"
     inkscape:groupmode="layer"
     inkscape:label="Layer 1"
     transform="translate(-121.81786,-117.35275)">
    <path
       sodipodi:nodetypes="cccccccccccccccccccccccccccccccccc"
       inkscape:connector-curvature="0"
       id="path6202"
       d="m 194.58713,143.31748 3.91499,-6.78112 1.476,0.85217 0.67319,-1.16602 -1.47602,-0.8522 1.47751,0.85302 0.67319,-1.16603 -1.47753,-0.85303 3.86884,-6.70089 6.27583,-1.6e-4 3.53027,6.11869 -1.35054,0.77973 0.67336,1.1663 1.35054,-0.77974 -1.35207,0.78062 0.33668,0.58315 0.33668,0.58314 1.35208,-0.78062 -1.35056,0.77974 0.67337,1.1663 1.35055,-0.77974 3.60801,6.24519 -3.06361,5.30648 -8.55926,-8e-5 3e-5,-1.62905 -0.67333,5e-5 -0.67333,5e-5 0.0282,1.62908 -8.53143,-1.7e-4 z m 8.69479,-1.45003 7.14657,-5e-5 -3.57325,-6.18906 z"
       style="opacity:1;fill:#e6e6e6;fill-opacity:1;stroke:url(#linearGradient6294);stroke-width:0.57554638;stroke-linecap:square;stroke-linejoin:bevel;stroke-miterlimit:100;stroke-dasharray:none;stroke-opacity:1" />
    <path
       style="opacity:1;fill:#e6e6e6;fill-opacity:1;stroke:url(#linearGradient6296);stroke-width:0.57554638;stroke-linecap:square;stroke-linejoin:bevel;stroke-miterlimit:100;stroke-dasharray:none;stroke-opacity:1"
       d="m 161.85553,143.31748 3.91499,-6.78112 1.476,0.85217 0.67319,-1.16602 -1.47602,-0.8522 1.47751,0.85302 0.67319,-1.16603 -1.47753,-0.85303 3.86884,-6.70089 6.27583,-1.6e-4 3.53027,6.11869 -1.35054,0.77973 0.67336,1.1663 1.35054,-0.77974 -1.35207,0.78062 0.33668,0.58315 0.33668,0.58314 1.35208,-0.78062 -1.35056,0.77974 0.67337,1.1663 1.35055,-0.77974 3.60801,6.24519 -3.06361,5.30648 -8.55926,-8e-5 3e-5,-1.62905 -0.67333,5e-5 -0.67333,5e-5 0.0282,1.62908 -8.53143,-1.7e-4 z m 8.69479,-1.45003 7.14657,-5e-5 -3.57325,-6.18906 z"
       id="path6204"
       inkscape:connector-curvature="0"
       sodipodi:nodetypes="cccccccccccccccccccccccccccccccccc" />
    <g
       aria-label="RGB"
       style="font-style:normal;font-variant:normal;font-weight:normal;font-stretch:normal;font-size:4.23333311px;line-height:1.25;font-family:Barlow;-inkscape-font-specification:Barlow;text-align:center;letter-spacing:0px;word-spacing:0px;text-anchor:middle;fill:#000000;fill-opacity:1;stroke-width:0.26458332"
       id="text6208">
      <path
         d="m 139.3202,159.3145 q -0.0381,0 -0.0508,-0.0296 l -0.6223,-1.31234 q -0.004,-0.0127 -0.0169,-0.0127 h -0.71967 q -0.0169,0 -0.0169,0.0169 v 1.2954 q 0,0.0423 -0.0423,0.0423 h -0.2159 q -0.0423,0 -0.0423,-0.0423 v -2.87867 q 0,-0.0423 0.0423,-0.0423 h 1.09643 q 0.36407,0 0.58843,0.2286 0.22437,0.22436 0.22437,0.58843 0,0.29633 -0.16087,0.50377 -0.16086,0.20743 -0.43603,0.2667 -0.0169,0.008 -0.008,0.0212 l 0.635,1.30387 q 0.004,0.008 0.004,0.0212 0,0.0296 -0.0339,0.0296 z m -1.4097,-2.70087 q -0.0169,0 -0.0169,0.0169 v 1.07103 q 0,0.0169 0.0169,0.0169 h 0.7874 q 0.24554,0 0.39794,-0.1524 0.1524,-0.1524 0.1524,-0.39793 0,-0.24553 -0.1524,-0.39793 -0.1524,-0.15664 -0.39794,-0.15664 z"
         style="text-align:center;text-anchor:middle;fill:#000000;fill-opacity:1;stroke-width:0.26458332"
         id="path2307"
         inkscape:connector-curvature="0" />
      <path
         d="m 141.08266,159.34837 q -0.29633,0 -0.5207,-0.1143 -0.22437,-0.11854 -0.35137,-0.3302 -0.12276,-0.21167 -0.12276,-0.48684 v -1.1684 q 0,-0.27516 0.12276,-0.48683 0.127,-0.21167 0.35137,-0.32597 0.22437,-0.11853 0.5207,-0.11853 0.2921,0 0.51647,0.1143 0.2286,0.1143 0.35136,0.32173 0.12277,0.2032 0.12277,0.46144 v 0.055 q 0,0.0423 -0.0423,0.0423 h -0.2159 q -0.0423,0 -0.0423,-0.0423 v -0.0508 q 0,-0.28363 -0.1905,-0.46143 -0.18626,-0.1778 -0.49953,-0.1778 -0.31327,0 -0.50377,0.18203 -0.1905,0.18203 -0.1905,0.47837 v 1.18533 q 0,0.29633 0.19474,0.47837 0.19473,0.18203 0.51223,0.18203 0.30903,0 0.49107,-0.16933 0.18626,-0.16934 0.18626,-0.45297 v -0.38523 q 0,-0.0169 -0.0169,-0.0169 h -0.6223 q -0.0423,0 -0.0423,-0.0423 v -0.1778 q 0,-0.0423 0.0423,-0.0423 h 0.89747 q 0.0423,0 0.0423,0.0423 v 0.5461 q 0,0.45297 -0.27093,0.70697 -0.2667,0.254 -0.71967,0.254 z"
         style="text-align:center;text-anchor:middle;fill:#000000;fill-opacity:1;stroke-width:0.26458332"
         id="path2309"
         inkscape:connector-curvature="0" />
      <path
         d="m 144.26308,157.76933 q -0.0212,0.0127 0,0.0254 0.2286,0.0931 0.34714,0.27517 0.11853,0.18203 0.11853,0.44027 0,0.381 -0.24553,0.59266 -0.2413,0.21167 -0.63924,0.21167 h -1.02446 q -0.0423,0 -0.0423,-0.0423 v -2.87867 q 0,-0.0423 0.0423,-0.0423 h 0.99483 q 0.41063,0 0.64347,0.2032 0.23706,0.2032 0.23706,0.5715 0,0.23283 -0.1143,0.39793 -0.11006,0.16087 -0.3175,0.24553 z m -1.1684,-1.1557 q -0.0169,0 -0.0169,0.0169 v 1.016 q 0,0.0169 0.0169,0.0169 h 0.71967 q 0.2667,0 0.42333,-0.1397 0.16087,-0.1397 0.16087,-0.37253 0,-0.24554 -0.16087,-0.38947 -0.15663,-0.14817 -0.42333,-0.14817 z m 0.7493,2.43417 q 0.2667,0 0.42334,-0.1524 0.16086,-0.1524 0.16086,-0.41063 0,-0.25824 -0.1651,-0.41064 -0.16086,-0.15663 -0.43603,-0.15663 h -0.73237 q -0.0169,0 -0.0169,0.0169 v 1.09644 q 0,0.0169 0.0169,0.0169 z"
         style="text-align:center;text-anchor:middle;fill:#000000;fill-opacity:1;stroke-width:0.26458332"
         id="path2311"
         inkscape:connector-curvature="0" />
    </g>
    <path
       sodipodi:nodetypes="cccccccccccccccccccccccccccccccccc"
       inkscape:connector-curvature="0"
       id="path6210"
       d="m 129.12394,143.31748 3.91499,-6.78112 1.476,0.85217 0.67319,-1.16602 -1.47602,-0.8522 1.47751,0.85302 0.67319,-1.16603 -1.47753,-0.85303 3.86884,-6.70089 6.27583,-1.6e-4 3.53027,6.11869 -1.35054,0.77973 0.67336,1.1663 1.35054,-0.77974 -1.35207,0.78062 0.33668,0.58315 0.33668,0.58314 1.35208,-0.78062 -1.35056,0.77974 0.67337,1.1663 1.35055,-0.77974 3.60801,6.24519 -3.06361,5.30648 -8.55926,-8e-5 3e-5,-1.62905 -0.67333,5e-5 -0.67333,5e-5 0.0282,1.62908 -8.53143,-1.7e-4 z m 8.69479,-1.45003 7.14657,-5e-5 -3.57325,-6.18906 z"
       style="opacity:1;fill:#e6e6e6;fill-opacity:1;stroke:url(#linearGradient6298);stroke-width:0.57554638;stroke-linecap:square;stroke-linejoin:bevel;stroke-miterlimit:100;stroke-dasharray:none;stroke-opacity:1" />
    <g
       aria-label="third color"
       transform="rotate(-60)"
       style="font-style:normal;font-variant:normal;font-weight:normal;font-stretch:normal;font-size:2.82222199px;line-height:1.25;font-family:Barlow;-inkscape-font-specification:Barlow;letter-spacing:0px;word-spacing:0px;fill:#1d1d1d;fill-opacity:1;stroke-width:0.26458332"
       id="text6234">
      <path
         d="m -56.471354,179.0659 q 0,0.0282 -0.02822,0.0282 h -0.318911 q -0.01129,0 -0.01129,0.0113 v 0.83255 q 0,0.13547 0.05927,0.19191 0.06209,0.0536 0.191912,0.0536 h 0.07055 q 0.02822,0 0.02822,0.0282 v 0.11571 q 0,0.0282 -0.02822,0.0282 -0.03387,0.003 -0.104422,0.003 -0.2032,0 -0.307622,-0.0762 -0.104423,-0.0762 -0.104423,-0.28222 v -0.89464 q 0,-0.0113 -0.01129,-0.0113 h -0.172156 q -0.02822,0 -0.02822,-0.0282 v -0.11007 q 0,-0.0282 0.02822,-0.0282 h 0.172156 q 0.01129,0 0.01129,-0.0113 v -0.32738 q 0,-0.0282 0.02822,-0.0282 h 0.138289 q 0.02822,0 0.02822,0.0282 v 0.32738 q 0,0.0113 0.01129,0.0113 h 0.318911 q 0.02822,0 0.02822,0.0282 z"
         style="font-size:2.82222199px;fill:#1d1d1d;fill-opacity:1;stroke-width:0.26458332"
         id="path2356"
         inkscape:connector-curvature="0" />
      <path
         d="m -55.494071,178.90785 q 0.225777,0 0.358422,0.13265 0.135466,0.13264 0.135466,0.3556 v 0.93133 q 0,0.0282 -0.02822,0.0282 h -0.143933 q -0.02822,0 -0.02822,-0.0282 v -0.89182 q 0,-0.15522 -0.09596,-0.254 -0.09313,-0.0988 -0.242711,-0.0988 -0.155222,0 -0.251178,0.096 -0.09596,0.096 -0.09596,0.25117 v 0.89747 q 0,0.0282 -0.02822,0.0282 h -0.143933 q -0.02822,0 -0.02822,-0.0282 v -1.91911 q 0,-0.0282 0.02822,-0.0282 h 0.143933 q 0.02822,0 0.02822,0.0282 v 0.66887 q 0,0.006 0.0028,0.008 0.0056,0.003 0.0085,-0.003 0.124177,-0.17498 0.381,-0.17498 z"
         style="font-size:2.82222199px;fill:#1d1d1d;fill-opacity:1;stroke-width:0.26458332"
         id="path2358"
         inkscape:connector-curvature="0" />
      <path
         d="m -54.429917,178.66796 q -0.06773,0 -0.112889,-0.0452 -0.04516,-0.0452 -0.04516,-0.11289 0,-0.0706 0.04516,-0.11289 0.04516,-0.0452 0.112889,-0.0452 0.06773,0 0.112889,0.0452 0.04516,0.0423 0.04516,0.11289 0,0.0677 -0.04516,0.11289 -0.04516,0.0452 -0.112889,0.0452 z m -0.07902,1.68487 q -0.02822,0 -0.02822,-0.0282 v -1.3716 q 0,-0.0282 0.02822,-0.0282 h 0.143934 q 0.02822,0 0.02822,0.0282 v 1.3716 q 0,0.0282 -0.02822,0.0282 z"
         style="font-size:2.82222199px;fill:#1d1d1d;fill-opacity:1;stroke-width:0.26458332"
         id="path2360"
         inkscape:connector-curvature="0" />
      <path
         d="m -53.267559,178.9135 q 0.09313,0 0.160867,0.0367 0.02258,0.0113 0.01693,0.0367 l -0.03104,0.13829 q -0.0085,0.0282 -0.03669,0.0169 -0.04798,-0.0198 -0.110067,-0.0198 l -0.03669,0.003 q -0.146755,0.006 -0.242711,0.11007 -0.09595,0.1016 -0.09595,0.25964 v 0.83256 q 0,0.0282 -0.02822,0.0282 h -0.143933 q -0.02822,0 -0.02822,-0.0282 v -1.3716 q 0,-0.0282 0.02822,-0.0282 h 0.143933 q 0.02822,0 0.02822,0.0282 v 0.17216 q 0,0.008 0.0028,0.0113 0.0056,0 0.0085,-0.006 0.05927,-0.10442 0.149577,-0.16087 0.09313,-0.0593 0.214489,-0.0593 z"
         style="font-size:2.82222199px;fill:#1d1d1d;fill-opacity:1;stroke-width:0.26458332"
         id="path2362"
         inkscape:connector-curvature="0" />
      <path
         d="m -51.948391,178.40832 q 0,-0.0282 0.02822,-0.0282 h 0.143933 q 0.02822,0 0.02822,0.0282 v 1.91911 q 0,0.0282 -0.02822,0.0282 h -0.143933 q -0.02822,0 -0.02822,-0.0282 v -0.11853 q 0,-0.006 -0.0056,-0.006 -0.0028,-0.003 -0.0085,0.003 -0.06209,0.0819 -0.155222,0.127 -0.09031,0.0452 -0.2032,0.0452 -0.197556,0 -0.333022,-0.1016 -0.132645,-0.1016 -0.183445,-0.27658 -0.03951,-0.127 -0.03951,-0.35842 0,-0.23424 0.03387,-0.34996 0.0508,-0.18062 0.186267,-0.28222 0.135466,-0.10442 0.335844,-0.10442 0.110067,0 0.2032,0.0452 0.09313,0.0423 0.155222,0.12417 0.0056,0.006 0.0085,0.006 0.0056,-0.003 0.0056,-0.008 z m -0.0508,1.57762 q 0.0254,-0.0564 0.03669,-0.13264 0.01129,-0.0762 0.01129,-0.21167 0,-0.13547 -0.01129,-0.21167 -0.01129,-0.079 -0.03951,-0.13829 -0.03387,-0.096 -0.112889,-0.1524 -0.0762,-0.0593 -0.183444,-0.0593 -0.112889,0 -0.194734,0.0564 -0.08184,0.0565 -0.118533,0.14958 -0.03387,0.0621 -0.0508,0.14111 -0.01411,0.0762 -0.01411,0.21449 0,0.13264 0.01129,0.20884 0.01129,0.0734 0.03951,0.13265 0.03387,0.1016 0.118533,0.16087 0.08749,0.0593 0.206023,0.0593 0.112888,0 0.189088,-0.0593 0.0762,-0.0593 0.112889,-0.15805 z"
         style="font-size:2.82222199px;fill:#1d1d1d;fill-opacity:1;stroke-width:0.26458332"
         id="path2364"
         inkscape:connector-curvature="0" />
      <path
         d="m -50.189882,180.37823 q -0.2032,0 -0.349955,-0.10442 -0.143933,-0.10725 -0.197556,-0.28787 -0.03669,-0.12418 -0.03669,-0.34995 0,-0.2032 0.03669,-0.34432 0.0508,-0.17497 0.197556,-0.2794 0.146755,-0.10724 0.349955,-0.10724 0.206023,0 0.3556,0.10442 0.1524,0.10442 0.197556,0.25965 0.01411,0.0508 0.01693,0.0847 v 0.006 q 0,0.0198 -0.0254,0.0254 l -0.141111,0.0198 h -0.0056 q -0.01976,0 -0.0254,-0.0254 l -0.0085,-0.0423 q -0.0254,-0.10724 -0.124178,-0.18062 -0.09878,-0.0762 -0.239889,-0.0762 -0.141111,0 -0.237066,0.0762 -0.09313,0.0734 -0.121356,0.19755 -0.0254,0.10725 -0.0254,0.28505 0,0.18626 0.0254,0.28786 0.02822,0.127 0.121356,0.2032 0.09596,0.0734 0.237066,0.0734 0.138289,0 0.237067,-0.0705 0.1016,-0.0734 0.127,-0.18627 v -0.0113 l 0.0028,-0.0113 q 0.0028,-0.0282 0.03387,-0.0226 l 0.138289,0.0226 q 0.02822,0.006 0.0254,0.0311 l -0.01129,0.0564 q -0.04233,0.16369 -0.194733,0.26529 -0.1524,0.1016 -0.358423,0.1016 z"
         style="font-size:2.82222199px;fill:#1d1d1d;fill-opacity:1;stroke-width:0.26458332"
         id="path2366"
         inkscape:connector-curvature="0" />
      <path
         d="m -48.729029,180.37823 q -0.2032,0 -0.349955,-0.10442 -0.146756,-0.10442 -0.2032,-0.28787 -0.03951,-0.12982 -0.03951,-0.34713 0,-0.21731 0.03951,-0.34431 0.05362,-0.18063 0.200377,-0.28505 0.146756,-0.10442 0.3556,-0.10442 0.200378,0 0.344311,0.10442 0.146756,0.10442 0.200378,0.28222 0.03951,0.12136 0.03951,0.34714 0,0.2286 -0.03951,0.34713 -0.05362,0.18345 -0.200378,0.28787 -0.143933,0.10442 -0.347133,0.10442 z m 0,-0.17498 q 0.135467,0 0.231422,-0.0734 0.09596,-0.0762 0.129823,-0.2032 0.0254,-0.1016 0.0254,-0.28504 0,-0.18627 -0.02258,-0.28504 -0.03387,-0.127 -0.132645,-0.20038 -0.09595,-0.0762 -0.234244,-0.0762 -0.138289,0 -0.234245,0.0762 -0.09595,0.0734 -0.129822,0.20038 -0.02258,0.0988 -0.02258,0.28504 0,0.18627 0.02258,0.28504 0.03104,0.127 0.127,0.2032 0.09878,0.0734 0.239889,0.0734 z"
         style="font-size:2.82222199px;fill:#1d1d1d;fill-opacity:1;stroke-width:0.26458332"
         id="path2368"
         inkscape:connector-curvature="0" />
      <path
         d="m -47.707605,180.35565 q -0.02822,0 -0.02822,-0.0282 v -1.91911 q 0,-0.0282 0.02822,-0.0282 h 0.143933 q 0.02822,0 0.02822,0.0282 v 1.91911 q 0,0.0282 -0.02822,0.0282 z"
         style="font-size:2.82222199px;fill:#1d1d1d;fill-opacity:1;stroke-width:0.26458332"
         id="path2370"
         inkscape:connector-curvature="0" />
      <path
         d="m -46.540704,180.37823 q -0.2032,0 -0.349956,-0.10442 -0.146755,-0.10442 -0.203199,-0.28787 -0.03951,-0.12982 -0.03951,-0.34713 0,-0.21731 0.03951,-0.34431 0.05362,-0.18063 0.200377,-0.28505 0.146756,-0.10442 0.3556,-0.10442 0.200378,0 0.344311,0.10442 0.146756,0.10442 0.200378,0.28222 0.03951,0.12136 0.03951,0.34714 0,0.2286 -0.03951,0.34713 -0.05362,0.18345 -0.200378,0.28787 -0.143933,0.10442 -0.347133,0.10442 z m 0,-0.17498 q 0.135467,0 0.231422,-0.0734 0.09596,-0.0762 0.129822,-0.2032 0.0254,-0.1016 0.0254,-0.28504 0,-0.18627 -0.02258,-0.28504 -0.03387,-0.127 -0.132645,-0.20038 -0.09595,-0.0762 -0.234244,-0.0762 -0.138289,0 -0.234245,0.0762 -0.09595,0.0734 -0.129822,0.20038 -0.02258,0.0988 -0.02258,0.28504 0,0.18627 0.02258,0.28504 0.03104,0.127 0.127,0.2032 0.09878,0.0734 0.239889,0.0734 z"
         style="font-size:2.82222199px;fill:#1d1d1d;fill-opacity:1;stroke-width:0.26458332"
         id="path2372"
         inkscape:connector-curvature="0" />
      <path
         d="m -44.971769,178.9135 q 0.09313,0 0.160867,0.0367 0.02258,0.0113 0.01693,0.0367 l -0.03105,0.13829 q -0.0085,0.0282 -0.03669,0.0169 -0.04798,-0.0198 -0.110067,-0.0198 l -0.03669,0.003 q -0.146756,0.006 -0.242711,0.11007 -0.09596,0.1016 -0.09596,0.25964 v 0.83256 q 0,0.0282 -0.02822,0.0282 h -0.143933 q -0.02822,0 -0.02822,-0.0282 v -1.3716 q 0,-0.0282 0.02822,-0.0282 h 0.143933 q 0.02822,0 0.02822,0.0282 v 0.17216 q 0,0.008 0.0028,0.0113 0.0056,0 0.0085,-0.006 0.05927,-0.10442 0.149578,-0.16087 0.09313,-0.0593 0.214489,-0.0593 z"
         style="font-size:2.82222199px;fill:#1d1d1d;fill-opacity:1;stroke-width:0.26458332"
         id="path2374"
         inkscape:connector-curvature="0" />
    </g>
    <path
       sodipodi:nodetypes="csccsc"
       inkscape:connector-curvature="0"
       id="path6236"
       d="m 148.46021,152.11786 c 0.70476,-0.41022 1.37217,-0.87967 1.99499,-1.40228 2.49125,-2.09041 4.26893,-5.03124 4.86873,-8.4329 m -9.15023,-15.84867 c -3.24583,-1.18138 -6.68149,-1.11228 -9.73748,1e-5 -0.76399,0.27807 -1.50425,0.62134 -2.21189,1.02657"
       style="opacity:0.75;fill:none;fill-opacity:1;stroke:#121212;stroke-width:0.2446461;stroke-linecap:square;stroke-linejoin:bevel;stroke-miterlimit:100;stroke-dasharray:none;stroke-opacity:1;marker-end:url(#marker6302)" />
    <g
       aria-label="second color"
       transform="rotate(60)"
       style="font-style:normal;font-variant:normal;font-weight:normal;font-stretch:normal;font-size:2.82222199px;line-height:1.25;font-family:Barlow;-inkscape-font-specification:Barlow;letter-spacing:0px;word-spacing:0px;fill:#1d1d1d;fill-opacity:1;stroke-width:0.26458332"
       id="text6240">
      <path
         d="m 184.3567,-64.021717 q -0.15805,0 -0.28223,-0.0508 -0.12135,-0.0508 -0.18908,-0.135466 -0.0649,-0.08467 -0.0649,-0.189089 v -0.03387 q 0,-0.02822 0.0282,-0.02822 h 0.13546 q 0.0282,0 0.0282,0.02822 v 0.02258 q 0,0.09313 0.0959,0.163689 0.0988,0.06773 0.24553,0.06773 0.14676,0 0.23707,-0.06491 0.0903,-0.06773 0.0903,-0.169333 0,-0.07056 -0.048,-0.115711 -0.0452,-0.04516 -0.11006,-0.07056 -0.0621,-0.0254 -0.19474,-0.06491 -0.15804,-0.04515 -0.25964,-0.09031 -0.1016,-0.04516 -0.17216,-0.124178 -0.0677,-0.08184 -0.0677,-0.206022 0,-0.180622 0.14111,-0.287867 0.14111,-0.107244 0.37254,-0.107244 0.15522,0 0.27375,0.0508 0.12136,0.0508 0.18627,0.141111 0.0649,0.08749 0.0649,0.197556 v 0.0085 q 0,0.02822 -0.0282,0.02822 h -0.13265 q -0.0282,0 -0.0282,-0.02822 v -0.0085 q 0,-0.09596 -0.0931,-0.160867 -0.0903,-0.06491 -0.24554,-0.06491 -0.14393,0 -0.23142,0.05927 -0.0875,0.05644 -0.0875,0.158045 0,0.09595 0.0847,0.146755 0.0847,0.0508 0.26247,0.1016 0.16368,0.04798 0.26528,0.09031 0.1016,0.04233 0.17498,0.124177 0.0734,0.07902 0.0734,0.208845 0,0.183444 -0.14393,0.293511 -0.14394,0.110066 -0.381,0.110066 z"
         style="font-size:2.82222199px;fill:#1d1d1d;fill-opacity:1;stroke-width:0.26458332"
         id="path2333"
         inkscape:connector-curvature="0" />
      <path
         d="m 186.33922,-64.989739 q 0.0113,0.07902 0.0113,0.197556 v 0.09031 q 0,0.02822 -0.0282,0.02822 h -0.91158 q -0.0113,0 -0.0113,0.01129 0.006,0.155222 0.0169,0.200378 0.031,0.127 0.13265,0.200378 0.1016,0.07338 0.25964,0.07338 0.11853,0 0.20885,-0.05362 0.0903,-0.05362 0.14111,-0.1524 0.0169,-0.0254 0.0395,-0.01129 l 0.11006,0.06491 q 0.0226,0.01411 0.0113,0.03951 -0.0705,0.135467 -0.21166,0.214489 -0.14111,0.0762 -0.32456,0.0762 -0.20038,-0.0028 -0.33584,-0.09595 -0.13547,-0.09313 -0.19474,-0.259645 -0.0508,-0.135466 -0.0508,-0.389466 0,-0.118534 0.003,-0.191911 0.006,-0.0762 0.0226,-0.135467 0.048,-0.183444 0.19191,-0.293511 0.14676,-0.110067 0.35278,-0.110067 0.25682,0 0.39511,0.129822 0.13829,0.129823 0.17216,0.366889 z m -0.56727,-0.321733 q -0.13829,0 -0.23142,0.07338 -0.0903,0.07055 -0.11853,0.191911 -0.0169,0.05927 -0.0226,0.191911 0,0.01129 0.0113,0.01129 h 0.73095 q 0.0113,0 0.0113,-0.01129 -0.006,-0.127 -0.0169,-0.180622 -0.031,-0.127 -0.127,-0.200378 -0.0931,-0.0762 -0.23707,-0.0762 z"
         style="font-size:2.82222199px;fill:#1d1d1d;fill-opacity:1;stroke-width:0.26458332"
         id="path2335"
         inkscape:connector-curvature="0" />
      <path
         d="m 187.28806,-64.01325 q -0.2032,0 -0.34996,-0.104422 -0.14393,-0.107245 -0.19755,-0.287867 -0.0367,-0.124177 -0.0367,-0.349955 0,-0.2032 0.0367,-0.344311 0.0508,-0.174978 0.19755,-0.2794 0.14676,-0.107245 0.34996,-0.107245 0.20602,0 0.3556,0.104422 0.1524,0.104423 0.19755,0.259645 0.0141,0.0508 0.0169,0.08467 v 0.0056 q 0,0.01976 -0.0254,0.0254 l -0.14111,0.01976 h -0.006 q -0.0198,0 -0.0254,-0.0254 l -0.008,-0.04233 q -0.0254,-0.107244 -0.12418,-0.180622 -0.0988,-0.0762 -0.23989,-0.0762 -0.14111,0 -0.23707,0.0762 -0.0931,0.07338 -0.12135,0.197556 -0.0254,0.107244 -0.0254,0.285044 0,0.186267 0.0254,0.287867 0.0282,0.127 0.12135,0.2032 0.096,0.07338 0.23707,0.07338 0.13829,0 0.23707,-0.07055 0.1016,-0.07338 0.127,-0.186267 v -0.01129 l 0.003,-0.01129 q 0.003,-0.02822 0.0339,-0.02258 l 0.13829,0.02258 q 0.0282,0.0056 0.0254,0.03105 l -0.0113,0.05644 q -0.0423,0.163689 -0.19473,0.265289 -0.1524,0.1016 -0.35842,0.1016 z"
         style="font-size:2.82222199px;fill:#1d1d1d;fill-opacity:1;stroke-width:0.26458332"
         id="path2337"
         inkscape:connector-curvature="0" />
      <path
         d="m 188.74891,-64.01325 q -0.2032,0 -0.34995,-0.104422 -0.14676,-0.104422 -0.2032,-0.287867 -0.0395,-0.129822 -0.0395,-0.347133 0,-0.217311 0.0395,-0.344311 0.0536,-0.180622 0.20037,-0.285045 0.14676,-0.104422 0.3556,-0.104422 0.20038,0 0.34431,0.104422 0.14676,0.104423 0.20038,0.282223 0.0395,0.121355 0.0395,0.347133 0,0.2286 -0.0395,0.347133 -0.0536,0.183445 -0.20038,0.287867 -0.14393,0.104422 -0.34713,0.104422 z m 0,-0.174978 q 0.13547,0 0.23142,-0.07338 0.096,-0.0762 0.12983,-0.2032 0.0254,-0.1016 0.0254,-0.285045 0,-0.186266 -0.0226,-0.285044 -0.0339,-0.127 -0.13265,-0.200378 -0.096,-0.0762 -0.23424,-0.0762 -0.13829,0 -0.23424,0.0762 -0.096,0.07338 -0.12983,0.200378 -0.0226,0.09878 -0.0226,0.285044 0,0.186267 0.0226,0.285045 0.031,0.127 0.127,0.2032 0.0988,0.07338 0.23989,0.07338 z"
         style="font-size:2.82222199px;fill:#1d1d1d;fill-opacity:1;stroke-width:0.26458332"
         id="path2339"
         inkscape:connector-curvature="0" />
      <path
         d="m 190.33478,-65.483628 q 0.22578,0 0.35842,0.132645 0.13547,0.132644 0.13547,0.3556 v 0.931333 q 0,0.02822 -0.0282,0.02822 h -0.14394 q -0.0282,0 -0.0282,-0.02822 v -0.891822 q 0,-0.155222 -0.0959,-0.254 -0.0931,-0.09878 -0.24272,-0.09878 -0.15522,0 -0.25117,0.09596 -0.096,0.09596 -0.096,0.251178 v 0.897466 q 0,0.02822 -0.0282,0.02822 h -0.14393 q -0.0282,0 -0.0282,-0.02822 v -1.3716 q 0,-0.02822 0.0282,-0.02822 h 0.14393 q 0.0282,0 0.0282,0.02822 v 0.121356 q 0,0.0056 0.003,0.0085 0.006,0.0028 0.008,-0.0028 0.12418,-0.174978 0.381,-0.174978 z"
         style="font-size:2.82222199px;fill:#1d1d1d;fill-opacity:1;stroke-width:0.26458332"
         id="path2341"
         inkscape:connector-curvature="0" />
      <path
         d="m 192.1276,-65.983161 q 0,-0.02822 0.0282,-0.02822 h 0.14393 q 0.0282,0 0.0282,0.02822 v 1.919111 q 0,0.02822 -0.0282,0.02822 h -0.14393 q -0.0282,0 -0.0282,-0.02822 v -0.118533 q 0,-0.0056 -0.006,-0.0056 -0.003,-0.0028 -0.008,0.0028 -0.0621,0.08184 -0.15523,0.127 -0.0903,0.04515 -0.2032,0.04515 -0.19755,0 -0.33302,-0.1016 -0.13264,-0.1016 -0.18344,-0.276578 -0.0395,-0.127 -0.0395,-0.358422 0,-0.234244 0.0339,-0.349955 0.0508,-0.180623 0.18627,-0.282223 0.13547,-0.104422 0.33584,-0.104422 0.11007,0 0.2032,0.04516 0.0931,0.04233 0.15523,0.124178 0.006,0.0056 0.008,0.0056 0.006,-0.0028 0.006,-0.0085 z m -0.0508,1.577622 q 0.0254,-0.05644 0.0367,-0.132644 0.0113,-0.0762 0.0113,-0.211667 0,-0.135466 -0.0113,-0.211666 -0.0113,-0.07902 -0.0395,-0.138289 -0.0339,-0.09596 -0.11288,-0.1524 -0.0762,-0.05927 -0.18345,-0.05927 -0.11289,0 -0.19473,0.05644 -0.0819,0.05644 -0.11854,0.149578 -0.0339,0.06209 -0.0508,0.141111 -0.0141,0.0762 -0.0141,0.214489 0,0.132645 0.0113,0.208845 0.0113,0.07338 0.0395,0.132644 0.0339,0.1016 0.11854,0.160867 0.0875,0.05927 0.20602,0.05927 0.11289,0 0.18909,-0.05927 0.0762,-0.05927 0.11289,-0.158045 z"
         style="font-size:2.82222199px;fill:#1d1d1d;fill-opacity:1;stroke-width:0.26458332"
         id="path2343"
         inkscape:connector-curvature="0" />
      <path
         d="m 193.88611,-64.01325 q -0.2032,0 -0.34996,-0.104422 -0.14393,-0.107245 -0.19756,-0.287867 -0.0367,-0.124177 -0.0367,-0.349955 0,-0.2032 0.0367,-0.344311 0.0508,-0.174978 0.19756,-0.2794 0.14676,-0.107245 0.34996,-0.107245 0.20602,0 0.3556,0.104422 0.1524,0.104423 0.19755,0.259645 0.0141,0.0508 0.0169,0.08467 v 0.0056 q 0,0.01976 -0.0254,0.0254 l -0.14111,0.01976 h -0.006 q -0.0198,0 -0.0254,-0.0254 l -0.008,-0.04233 q -0.0254,-0.107244 -0.12418,-0.180622 -0.0988,-0.0762 -0.23988,-0.0762 -0.14112,0 -0.23707,0.0762 -0.0931,0.07338 -0.12136,0.197556 -0.0254,0.107244 -0.0254,0.285044 0,0.186267 0.0254,0.287867 0.0282,0.127 0.12136,0.2032 0.0959,0.07338 0.23707,0.07338 0.13828,0 0.23706,-0.07055 0.1016,-0.07338 0.127,-0.186267 v -0.01129 l 0.003,-0.01129 q 0.003,-0.02822 0.0339,-0.02258 l 0.13829,0.02258 q 0.0282,0.0056 0.0254,0.03105 l -0.0113,0.05644 q -0.0423,0.163689 -0.19473,0.265289 -0.1524,0.1016 -0.35842,0.1016 z"
         style="font-size:2.82222199px;fill:#1d1d1d;fill-opacity:1;stroke-width:0.26458332"
         id="path2345"
         inkscape:connector-curvature="0" />
      <path
         d="m 195.34696,-64.01325 q -0.2032,0 -0.34996,-0.104422 -0.14675,-0.104422 -0.2032,-0.287867 -0.0395,-0.129822 -0.0395,-0.347133 0,-0.217311 0.0395,-0.344311 0.0536,-0.180622 0.20038,-0.285045 0.14676,-0.104422 0.3556,-0.104422 0.20038,0 0.34431,0.104422 0.14676,0.104423 0.20038,0.282223 0.0395,0.121355 0.0395,0.347133 0,0.2286 -0.0395,0.347133 -0.0536,0.183445 -0.20038,0.287867 -0.14393,0.104422 -0.34713,0.104422 z m 0,-0.174978 q 0.13546,0 0.23142,-0.07338 0.096,-0.0762 0.12982,-0.2032 0.0254,-0.1016 0.0254,-0.285045 0,-0.186266 -0.0226,-0.285044 -0.0339,-0.127 -0.13264,-0.200378 -0.096,-0.0762 -0.23424,-0.0762 -0.13829,0 -0.23425,0.0762 -0.096,0.07338 -0.12982,0.200378 -0.0226,0.09878 -0.0226,0.285044 0,0.186267 0.0226,0.285045 0.031,0.127 0.127,0.2032 0.0988,0.07338 0.23989,0.07338 z"
         style="font-size:2.82222199px;fill:#1d1d1d;fill-opacity:1;stroke-width:0.26458332"
         id="path2347"
         inkscape:connector-curvature="0" />
      <path
         d="m 196.36838,-64.035828 q -0.0282,0 -0.0282,-0.02822 v -1.919111 q 0,-0.02822 0.0282,-0.02822 h 0.14394 q 0.0282,0 0.0282,0.02822 v 1.919111 q 0,0.02822 -0.0282,0.02822 z"
         style="font-size:2.82222199px;fill:#1d1d1d;fill-opacity:1;stroke-width:0.26458332"
         id="path2349"
         inkscape:connector-curvature="0" />
      <path
         d="m 197.53528,-64.01325 q -0.2032,0 -0.34995,-0.104422 -0.14676,-0.104422 -0.2032,-0.287867 -0.0395,-0.129822 -0.0395,-0.347133 0,-0.217311 0.0395,-0.344311 0.0536,-0.180622 0.20038,-0.285045 0.14675,-0.104422 0.3556,-0.104422 0.20037,0 0.34431,0.104422 0.14675,0.104423 0.20037,0.282223 0.0395,0.121355 0.0395,0.347133 0,0.2286 -0.0395,0.347133 -0.0536,0.183445 -0.20037,0.287867 -0.14394,0.104422 -0.34714,0.104422 z m 0,-0.174978 q 0.13547,0 0.23143,-0.07338 0.096,-0.0762 0.12982,-0.2032 0.0254,-0.1016 0.0254,-0.285045 0,-0.186266 -0.0226,-0.285044 -0.0339,-0.127 -0.13264,-0.200378 -0.096,-0.0762 -0.23425,-0.0762 -0.13829,0 -0.23424,0.0762 -0.096,0.07338 -0.12983,0.200378 -0.0226,0.09878 -0.0226,0.285044 0,0.186267 0.0226,0.285045 0.0311,0.127 0.127,0.2032 0.0988,0.07338 0.23989,0.07338 z"
         style="font-size:2.82222199px;fill:#1d1d1d;fill-opacity:1;stroke-width:0.26458332"
         id="path2351"
         inkscape:connector-curvature="0" />
      <path
         d="m 199.10422,-65.477983 q 0.0931,0 0.16086,0.03669 0.0226,0.01129 0.0169,0.03669 l -0.031,0.138289 q -0.008,0.02822 -0.0367,0.01693 -0.048,-0.01976 -0.11006,-0.01976 l -0.0367,0.0028 q -0.14676,0.0056 -0.24271,0.110066 -0.096,0.1016 -0.096,0.259645 v 0.832555 q 0,0.02822 -0.0282,0.02822 h -0.14393 q -0.0282,0 -0.0282,-0.02822 v -1.3716 q 0,-0.02822 0.0282,-0.02822 h 0.14393 q 0.0282,0 0.0282,0.02822 v 0.172156 q 0,0.0085 0.003,0.01129 0.006,0 0.008,-0.0056 0.0593,-0.104422 0.14958,-0.160866 0.0931,-0.05927 0.21449,-0.05927 z"
         style="font-size:2.82222199px;fill:#1d1d1d;fill-opacity:1;stroke-width:0.26458332"
         id="path2353"
         inkscape:connector-curvature="0" />
    </g>
    <g
       aria-label="first color"
       style="font-style:normal;font-variant:normal;font-weight:normal;font-stretch:normal;font-size:2.82222199px;line-height:1.25;font-family:Barlow;-inkscape-font-specification:Barlow;letter-spacing:0px;word-spacing:0px;fill:#1d1d1d;fill-opacity:1;stroke-width:0.26458332"
       id="text6244">
      <path
         d="m 136.07568,151.45392 q -0.15522,0 -0.21166,0.0706 -0.0565,0.0677 -0.0565,0.23424 v 0.0564 q 0,0.0113 0.0113,0.0113 h 0.31609 q 0.0282,0 0.0282,0.0282 v 0.127 q 0,0.0282 -0.0282,0.0282 h -0.31609 q -0.0113,0 -0.0113,0.0113 v 1.20509 q 0,0.0282 -0.0282,0.0282 h -0.14111 q -0.0282,0 -0.0282,-0.0282 v -1.20509 q 0,-0.0113 -0.0113,-0.0113 h -0.18909 q -0.0282,0 -0.0282,-0.0282 v -0.127 q 0,-0.0282 0.0282,-0.0282 h 0.18909 q 0.0113,0 0.0113,-0.0113 v -0.0677 q 0,-0.17497 0.0395,-0.27375 0.0395,-0.1016 0.13546,-0.14676 0.0988,-0.048 0.27376,-0.048 h 0.0818 q 0.0282,0 0.0282,0.0282 v 0.11853 q 0,0.0282 -0.0282,0.0282 z m 0.57574,0.11289 q -0.0677,0 -0.11289,-0.0452 -0.0452,-0.0452 -0.0452,-0.11289 0,-0.0706 0.0452,-0.11289 0.0451,-0.0452 0.11289,-0.0452 0.0677,0 0.11289,0.0452 0.0452,0.0423 0.0452,0.11289 0,0.0677 -0.0452,0.11289 -0.0452,0.0452 -0.11289,0.0452 z m -0.079,1.68487 q -0.0282,0 -0.0282,-0.0282 v -1.3716 q 0,-0.0282 0.0282,-0.0282 h 0.14394 q 0.0282,0 0.0282,0.0282 v 1.3716 q 0,0.0282 -0.0282,0.0282 z"
         style="font-size:2.82222199px;fill:#1d1d1d;fill-opacity:1;stroke-width:0.26458332"
         id="path2314"
         inkscape:connector-curvature="0" />
      <path
         d="m 137.81228,151.81235 q 0.0931,0 0.16086,0.0367 0.0226,0.0113 0.0169,0.0367 l -0.031,0.13829 q -0.008,0.0282 -0.0367,0.0169 -0.048,-0.0198 -0.11006,-0.0198 l -0.0367,0.003 q -0.14676,0.006 -0.24271,0.11007 -0.096,0.1016 -0.096,0.25964 v 0.83256 q 0,0.0282 -0.0282,0.0282 h -0.14393 q -0.0282,0 -0.0282,-0.0282 v -1.3716 q 0,-0.0282 0.0282,-0.0282 h 0.14393 q 0.0282,0 0.0282,0.0282 v 0.17215 q 0,0.008 0.003,0.0113 0.006,0 0.008,-0.006 0.0593,-0.10442 0.14958,-0.16087 0.0931,-0.0593 0.21449,-0.0593 z"
         style="font-size:2.82222199px;fill:#1d1d1d;fill-opacity:1;stroke-width:0.26458332"
         id="path2316"
         inkscape:connector-curvature="0" />
      <path
         d="m 138.71927,153.26861 q -0.15805,0 -0.28222,-0.0508 -0.12136,-0.0508 -0.18909,-0.13546 -0.0649,-0.0847 -0.0649,-0.18909 v -0.0339 q 0,-0.0282 0.0282,-0.0282 h 0.13546 q 0.0282,0 0.0282,0.0282 v 0.0226 q 0,0.0931 0.096,0.16369 0.0988,0.0677 0.24554,0.0677 0.14675,0 0.23706,-0.0649 0.0903,-0.0677 0.0903,-0.16933 0,-0.0706 -0.048,-0.11572 -0.0452,-0.0452 -0.11007,-0.0705 -0.0621,-0.0254 -0.19473,-0.0649 -0.15805,-0.0452 -0.25965,-0.0903 -0.1016,-0.0452 -0.17215,-0.12418 -0.0677,-0.0819 -0.0677,-0.20602 0,-0.18063 0.14111,-0.28787 0.14111,-0.10724 0.37254,-0.10724 0.15522,0 0.27375,0.0508 0.12136,0.0508 0.18627,0.14111 0.0649,0.0875 0.0649,0.19755 v 0.008 q 0,0.0282 -0.0282,0.0282 h -0.13265 q -0.0282,0 -0.0282,-0.0282 v -0.008 q 0,-0.0959 -0.0931,-0.16086 -0.0903,-0.0649 -0.24554,-0.0649 -0.14393,0 -0.23142,0.0593 -0.0875,0.0564 -0.0875,0.15805 0,0.0959 0.0847,0.14675 0.0847,0.0508 0.26247,0.1016 0.16369,0.048 0.26529,0.0903 0.1016,0.0423 0.17497,0.12418 0.0734,0.079 0.0734,0.20884 0,0.18345 -0.14393,0.29352 -0.14394,0.11006 -0.381,0.11006 z"
         style="font-size:2.82222199px;fill:#1d1d1d;fill-opacity:1;stroke-width:0.26458332"
         id="path2318"
         inkscape:connector-curvature="0" />
      <path
         d="m 140.2419,151.96475 q 0,0.0282 -0.0282,0.0282 h -0.31891 q -0.0113,0 -0.0113,0.0113 v 0.83255 q 0,0.13547 0.0593,0.19191 0.0621,0.0536 0.19192,0.0536 h 0.0705 q 0.0282,0 0.0282,0.0282 v 0.11571 q 0,0.0282 -0.0282,0.0282 -0.0339,0.003 -0.10442,0.003 -0.2032,0 -0.30762,-0.0762 -0.10443,-0.0762 -0.10443,-0.28222 v -0.89464 q 0,-0.0113 -0.0113,-0.0113 h -0.17216 q -0.0282,0 -0.0282,-0.0282 v -0.11007 q 0,-0.0282 0.0282,-0.0282 h 0.17216 q 0.0113,0 0.0113,-0.0113 v -0.32738 q 0,-0.0282 0.0282,-0.0282 h 0.13829 q 0.0282,0 0.0282,0.0282 v 0.32738 q 0,0.0113 0.0113,0.0113 h 0.31891 q 0.0282,0 0.0282,0.0282 z"
         style="font-size:2.82222199px;fill:#1d1d1d;fill-opacity:1;stroke-width:0.26458332"
         id="path2320"
         inkscape:connector-curvature="0" />
      <path
         d="m 141.7278,153.27708 q -0.2032,0 -0.34996,-0.10442 -0.14393,-0.10725 -0.19755,-0.28787 -0.0367,-0.12418 -0.0367,-0.34996 0,-0.2032 0.0367,-0.34431 0.0508,-0.17497 0.19755,-0.2794 0.14676,-0.10724 0.34996,-0.10724 0.20602,0 0.3556,0.10442 0.1524,0.10442 0.19756,0.25965 0.0141,0.0508 0.0169,0.0847 v 0.006 q 0,0.0197 -0.0254,0.0254 l -0.14111,0.0198 h -0.006 q -0.0198,0 -0.0254,-0.0254 l -0.008,-0.0423 q -0.0254,-0.10725 -0.12418,-0.18062 -0.0988,-0.0762 -0.23989,-0.0762 -0.14111,0 -0.23707,0.0762 -0.0931,0.0734 -0.12135,0.19755 -0.0254,0.10725 -0.0254,0.28505 0,0.18626 0.0254,0.28786 0.0282,0.127 0.12135,0.2032 0.096,0.0734 0.23707,0.0734 0.13829,0 0.23707,-0.0705 0.1016,-0.0734 0.127,-0.18627 v -0.0113 l 0.003,-0.0113 q 0.003,-0.0282 0.0339,-0.0226 l 0.13828,0.0226 q 0.0282,0.006 0.0254,0.031 l -0.0113,0.0564 q -0.0423,0.16369 -0.19474,0.26529 -0.1524,0.1016 -0.35842,0.1016 z"
         style="font-size:2.82222199px;fill:#1d1d1d;fill-opacity:1;stroke-width:0.26458332"
         id="path2322"
         inkscape:connector-curvature="0" />
      <path
         d="m 143.18865,153.27708 q -0.2032,0 -0.34995,-0.10442 -0.14676,-0.10443 -0.2032,-0.28787 -0.0395,-0.12982 -0.0395,-0.34713 0,-0.21731 0.0395,-0.34431 0.0536,-0.18063 0.20038,-0.28505 0.14675,-0.10442 0.3556,-0.10442 0.20037,0 0.34431,0.10442 0.14675,0.10442 0.20037,0.28222 0.0395,0.12136 0.0395,0.34714 0,0.2286 -0.0395,0.34713 -0.0536,0.18344 -0.20037,0.28787 -0.14394,0.10442 -0.34714,0.10442 z m 0,-0.17498 q 0.13547,0 0.23142,-0.0734 0.096,-0.0762 0.12983,-0.2032 0.0254,-0.1016 0.0254,-0.28504 0,-0.18627 -0.0226,-0.28505 -0.0339,-0.127 -0.13265,-0.20037 -0.096,-0.0762 -0.23424,-0.0762 -0.13829,0 -0.23424,0.0762 -0.096,0.0734 -0.12983,0.20037 -0.0226,0.0988 -0.0226,0.28505 0,0.18627 0.0226,0.28504 0.031,0.127 0.127,0.2032 0.0988,0.0734 0.23989,0.0734 z"
         style="font-size:2.82222199px;fill:#1d1d1d;fill-opacity:1;stroke-width:0.26458332"
         id="path2324"
         inkscape:connector-curvature="0" />
      <path
         d="m 144.21008,153.2545 q -0.0282,0 -0.0282,-0.0282 v -1.91911 q 0,-0.0282 0.0282,-0.0282 h 0.14393 q 0.0282,0 0.0282,0.0282 v 1.91911 q 0,0.0282 -0.0282,0.0282 z"
         style="font-size:2.82222199px;fill:#1d1d1d;fill-opacity:1;stroke-width:0.26458332"
         id="path2326"
         inkscape:connector-curvature="0" />
      <path
         d="m 145.37698,153.27708 q -0.2032,0 -0.34996,-0.10442 -0.14675,-0.10443 -0.2032,-0.28787 -0.0395,-0.12982 -0.0395,-0.34713 0,-0.21731 0.0395,-0.34431 0.0536,-0.18063 0.20038,-0.28505 0.14676,-0.10442 0.3556,-0.10442 0.20038,0 0.34431,0.10442 0.14676,0.10442 0.20038,0.28222 0.0395,0.12136 0.0395,0.34714 0,0.2286 -0.0395,0.34713 -0.0536,0.18344 -0.20038,0.28787 -0.14393,0.10442 -0.34713,0.10442 z m 0,-0.17498 q 0.13546,0 0.23142,-0.0734 0.096,-0.0762 0.12982,-0.2032 0.0254,-0.1016 0.0254,-0.28504 0,-0.18627 -0.0226,-0.28505 -0.0339,-0.127 -0.13264,-0.20037 -0.096,-0.0762 -0.23424,-0.0762 -0.13829,0 -0.23425,0.0762 -0.0959,0.0734 -0.12982,0.20037 -0.0226,0.0988 -0.0226,0.28505 0,0.18627 0.0226,0.28504 0.031,0.127 0.127,0.2032 0.0988,0.0734 0.23989,0.0734 z"
         style="font-size:2.82222199px;fill:#1d1d1d;fill-opacity:1;stroke-width:0.26458332"
         id="path2328"
         inkscape:connector-curvature="0" />
      <path
         d="m 146.94591,151.81235 q 0.0931,0 0.16087,0.0367 0.0226,0.0113 0.0169,0.0367 l -0.031,0.13829 q -0.008,0.0282 -0.0367,0.0169 -0.048,-0.0198 -0.11007,-0.0198 l -0.0367,0.003 q -0.14675,0.006 -0.24271,0.11007 -0.0959,0.1016 -0.0959,0.25964 v 0.83256 q 0,0.0282 -0.0282,0.0282 h -0.14393 q -0.0282,0 -0.0282,-0.0282 v -1.3716 q 0,-0.0282 0.0282,-0.0282 h 0.14393 q 0.0282,0 0.0282,0.0282 v 0.17215 q 0,0.008 0.003,0.0113 0.006,0 0.008,-0.006 0.0593,-0.10442 0.14957,-0.16087 0.0931,-0.0593 0.21449,-0.0593 z"
         style="font-size:2.82222199px;fill:#1d1d1d;fill-opacity:1;stroke-width:0.26458332"
         id="path2330"
         inkscape:connector-curvature="0" />
    </g>
    <g
       aria-label="CMY"
       style="font-style:normal;font-variant:normal;font-weight:normal;font-stretch:normal;font-size:4.23333311px;line-height:1.25;font-family:Barlow;-inkscape-font-specification:Barlow;text-align:center;letter-spacing:0px;word-spacing:0px;text-anchor:middle;fill:#000000;fill-opacity:1;stroke-width:0.26458332"
       id="text6268">
      <path
         d="m 171.25455,159.35048 q -0.29633,0 -0.5207,-0.1143 -0.22437,-0.11854 -0.35137,-0.3302 -0.12276,-0.2159 -0.12276,-0.4953 v -1.16417 q 0,-0.27517 0.12276,-0.48683 0.127,-0.21167 0.35137,-0.32597 0.22437,-0.11853 0.5207,-0.11853 0.29633,0 0.5207,0.1143 0.22437,0.1143 0.34713,0.32173 0.127,0.20743 0.127,0.47837 0,0.0212 -0.0127,0.0339 -0.0127,0.0127 -0.0296,0.0127 l -0.2159,0.0127 q -0.0423,0 -0.0423,-0.0381 v -0.0127 q 0,-0.30056 -0.1905,-0.47836 -0.1905,-0.18204 -0.50377,-0.18204 -0.31327,0 -0.50377,0.18204 -0.1905,0.18203 -0.1905,0.47836 v 1.18534 q 0,0.29633 0.1905,0.47836 0.1905,0.18204 0.50377,0.18204 0.31327,0 0.50377,-0.1778 0.1905,-0.18204 0.1905,-0.4826 v -0.008 q 0,-0.0381 0.0423,-0.0381 l 0.2159,0.0127 q 0.0423,0 0.0423,0.0381 0,0.27517 -0.127,0.48683 -0.12276,0.20744 -0.34713,0.32174 -0.22437,0.1143 -0.5207,0.1143 z"
         style="text-align:center;text-anchor:middle;fill:#000000;fill-opacity:1;stroke-width:0.26458332"
         id="path2300"
         inkscape:connector-curvature="0" />
      <path
         d="m 174.8462,156.37868 q 0.0212,-0.0296 0.0508,-0.0296 h 0.22014 q 0.0423,0 0.0423,0.0423 v 2.87866 q 0,0.0423 -0.0423,0.0423 h -0.2159 q -0.0423,0 -0.0423,-0.0423 v -2.35373 q 0,-0.0127 -0.008,-0.0169 -0.008,-0.004 -0.0127,0.008 l -0.69004,1.05834 q -0.0212,0.0296 -0.0508,0.0296 h -0.11006 q -0.0296,0 -0.0508,-0.0254 l -0.69004,-1.04987 q -0.004,-0.0127 -0.0127,-0.008 -0.008,0.004 -0.008,0.0169 v 2.34103 q 0,0.0423 -0.0423,0.0423 h -0.2159 q -0.0423,0 -0.0423,-0.0423 v -2.87866 q 0,-0.0423 0.0423,-0.0423 h 0.22014 q 0.0339,0 0.0508,0.0254 l 0.79586,1.2065 q 0.004,0.004 0.0127,0.004 0.008,0 0.0127,-0.004 z"
         style="text-align:center;text-anchor:middle;fill:#000000;fill-opacity:1;stroke-width:0.26458332"
         id="path2302"
         inkscape:connector-curvature="0" />
      <path
         d="m 176.64471,159.30814 q -0.0423,0 -0.0423,-0.0423 v -1.25307 q 0,-0.0169 -0.004,-0.0212 l -0.88053,-1.59174 q -0.008,-0.0169 -0.008,-0.0254 0,-0.0254 0.0381,-0.0254 h 0.2286 q 0.0381,0 0.0508,0.0296 l 0.7112,1.29116 q 0.004,0.004 0.0127,0.004 0.008,0 0.0127,-0.004 l 0.71544,-1.29116 q 0.0169,-0.0296 0.0508,-0.0296 h 0.2286 q 0.0254,0 0.0339,0.0169 0.008,0.0127 -0.004,0.0339 l -0.88053,1.59174 q -0.004,0.004 -0.004,0.0212 v 1.25307 q 0,0.0423 -0.0423,0.0423 z"
         style="text-align:center;text-anchor:middle;fill:#000000;fill-opacity:1;stroke-width:0.26458332"
         id="path2304"
         inkscape:connector-curvature="0" />
    </g>
    <g
       aria-label="BBY"
       style="font-style:normal;font-variant:normal;font-weight:normal;font-stretch:normal;font-size:4.23333311px;line-height:1.25;font-family:Barlow;-inkscape-font-specification:Barlow;text-align:center;letter-spacing:0px;word-spacing:0px;text-anchor:middle;fill:#000000;fill-opacity:1;stroke-width:0.26458332"
       id="text6292">
      <path
         d="m 204.75225,157.76721 q -0.0212,0.0127 0,0.0254 0.2286,0.0931 0.34713,0.27517 0.11854,0.18203 0.11854,0.44026 0,0.381 -0.24554,0.59267 -0.2413,0.21167 -0.63923,0.21167 h -1.02447 q -0.0423,0 -0.0423,-0.0423 v -2.87866 q 0,-0.0423 0.0423,-0.0423 h 0.99484 q 0.41063,0 0.64346,0.2032 0.23707,0.2032 0.23707,0.5715 0,0.23284 -0.1143,0.39794 -0.11007,0.16086 -0.3175,0.24553 z m -1.1684,-1.1557 q -0.0169,0 -0.0169,0.0169 v 1.016 q 0,0.0169 0.0169,0.0169 h 0.71967 q 0.2667,0 0.42333,-0.1397 0.16087,-0.1397 0.16087,-0.37254 0,-0.24553 -0.16087,-0.38946 -0.15663,-0.14817 -0.42333,-0.14817 z m 0.7493,2.43417 q 0.2667,0 0.42333,-0.1524 0.16087,-0.1524 0.16087,-0.41064 0,-0.25823 -0.1651,-0.41063 -0.16087,-0.15663 -0.43603,-0.15663 h -0.73237 q -0.0169,0 -0.0169,0.0169 v 1.09643 q 0,0.0169 0.0169,0.0169 z"
         style="text-align:center;text-anchor:middle;fill:#000000;fill-opacity:1;stroke-width:0.26458332"
         id="path2293"
         inkscape:connector-curvature="0" />
      <path
         d="m 207.40635,157.76721 q -0.0212,0.0127 0,0.0254 0.2286,0.0931 0.34713,0.27517 0.11854,0.18203 0.11854,0.44026 0,0.381 -0.24554,0.59267 -0.2413,0.21167 -0.63923,0.21167 h -1.02447 q -0.0423,0 -0.0423,-0.0423 v -2.87866 q 0,-0.0423 0.0423,-0.0423 h 0.99484 q 0.41063,0 0.64346,0.2032 0.23707,0.2032 0.23707,0.5715 0,0.23284 -0.1143,0.39794 -0.11007,0.16086 -0.3175,0.24553 z m -1.1684,-1.1557 q -0.0169,0 -0.0169,0.0169 v 1.016 q 0,0.0169 0.0169,0.0169 h 0.71967 q 0.2667,0 0.42333,-0.1397 0.16087,-0.1397 0.16087,-0.37254 0,-0.24553 -0.16087,-0.38946 -0.15663,-0.14817 -0.42333,-0.14817 z m 0.7493,2.43417 q 0.2667,0 0.42333,-0.1524 0.16087,-0.1524 0.16087,-0.41064 0,-0.25823 -0.1651,-0.41063 -0.16087,-0.15663 -0.43603,-0.15663 h -0.73237 q -0.0169,0 -0.0169,0.0169 v 1.09643 q 0,0.0169 0.0169,0.0169 z"
         style="text-align:center;text-anchor:middle;fill:#000000;fill-opacity:1;stroke-width:0.26458332"
         id="path2295"
         inkscape:connector-curvature="0" />
      <path
         d="m 209.1944,159.30814 q -0.0423,0 -0.0423,-0.0423 v -1.25307 q 0,-0.0169 -0.004,-0.0212 l -0.88053,-1.59174 q -0.008,-0.0169 -0.008,-0.0254 0,-0.0254 0.0381,-0.0254 h 0.2286 q 0.0381,0 0.0508,0.0296 l 0.7112,1.29116 q 0.004,0.004 0.0127,0.004 0.008,0 0.0127,-0.004 l 0.71543,-1.29116 q 0.0169,-0.0296 0.0508,-0.0296 h 0.2286 q 0.0254,0 0.0339,0.0169 0.008,0.0127 -0.004,0.0339 l -0.88053,1.59174 q -0.004,0.004 -0.004,0.0212 v 1.25307 q 0,0.0423 -0.0423,0.0423 z"
         style="text-align:center;text-anchor:middle;fill:#000000;fill-opacity:1;stroke-width:0.26458332"
         id="path2297"
         inkscape:connector-curvature="0" />
    </g>
    <g
       id="g2735"
       clip-path="url(#clipPath6008)"
       transform="translate(0,44.81555)">
      <g
         id="g2721"
         style="fill:#ff0000;fill-opacity:1">
        <circle
           transform="matrix(1.61569,0,0,1.1242545,-87.070289,-12.011684)"
           style="opacity:0.75;fill:#ff0000;fill-opacity:1;stroke:none;stroke-width:2.45144987;stroke-linecap:square;stroke-linejoin:bevel;stroke-miterlimit:100;stroke-dasharray:none;stroke-opacity:1;filter:url(#filter5242)"
           id="circle2717"
           cx="141.41902"
           cy="98.747467"
           r="3.7206261" />
        <circle
           r="0.88057005"
           cy="99.0056"
           cx="141.41902"
           id="circle2719"
           style="opacity:1;fill:#ff0000;fill-opacity:1;stroke:none;stroke-width:0.58019084;stroke-linecap:square;stroke-linejoin:bevel;stroke-miterlimit:100;stroke-dasharray:none;stroke-opacity:1" />
      </g>
      <g
         id="g2727"
         transform="rotate(120,141.42615,94.862824)"
         style="fill:#0000ff;fill-opacity:1">
        <circle
           r="3.7206261"
           cy="98.747467"
           cx="141.41902"
           id="circle2723"
           style="opacity:0.75;fill:#0000ff;fill-opacity:1;stroke:none;stroke-width:2.45144987;stroke-linecap:square;stroke-linejoin:bevel;stroke-miterlimit:100;stroke-dasharray:none;stroke-opacity:1;filter:url(#filter5246)"
           transform="matrix(1.61569,0,0,1.1242545,-87.070289,-12.011684)" />
        <circle
           style="opacity:1;fill:#0000ff;fill-opacity:1;stroke:none;stroke-width:0.58019084;stroke-linecap:square;stroke-linejoin:bevel;stroke-miterlimit:100;stroke-dasharray:none;stroke-opacity:1"
           id="circle2725"
           cx="141.41902"
           cy="99.0056"
           r="0.88057005" />
      </g>
      <g
         transform="rotate(-120,141.37338,94.929562)"
         id="g2733"
         style="fill:#00ff00;fill-opacity:1">
        <circle
           transform="matrix(1.61569,0,0,1.1242545,-87.070289,-12.011684)"
           style="opacity:0.75;fill:#00ff00;fill-opacity:1;stroke:none;stroke-width:2.45144987;stroke-linecap:square;stroke-linejoin:bevel;stroke-miterlimit:100;stroke-dasharray:none;stroke-opacity:1;filter:url(#filter5250)"
           id="circle2729"
           cx="141.41902"
           cy="98.747467"
           r="3.7206261" />
        <circle
           r="0.88057005"
           cy="99.0056"
           cx="141.41902"
           id="circle2731"
           style="opacity:1;fill:#00ff00;fill-opacity:1;stroke:none;stroke-width:0.58019084;stroke-linecap:square;stroke-linejoin:bevel;stroke-miterlimit:100;stroke-dasharray:none;stroke-opacity:1" />
      </g>
    </g>
    <g
       clip-path="url(#clipPath6072)"
       id="g2755"
       transform="translate(0,44.81555)">
      <g
         style="fill:#00ffff;fill-opacity:1"
         id="g2741"
         transform="translate(32.731593)">
        <circle
           r="3.7206261"
           cy="98.747467"
           cx="141.41902"
           id="circle2737"
           style="opacity:0.75;fill:#00ffff;fill-opacity:1;stroke:none;stroke-width:2.45144987;stroke-linecap:square;stroke-linejoin:bevel;stroke-miterlimit:100;stroke-dasharray:none;stroke-opacity:1;filter:url(#filter5242)"
           transform="matrix(1.61569,0,0,1.1242545,-87.070289,-12.011684)" />
        <circle
           style="opacity:1;fill:#00ffff;fill-opacity:1;stroke:none;stroke-width:0.58019084;stroke-linecap:square;stroke-linejoin:bevel;stroke-miterlimit:100;stroke-dasharray:none;stroke-opacity:1"
           id="circle2739"
           cx="141.41902"
           cy="99.0056"
           r="0.88057005" />
      </g>
      <g
         style="fill:#ffff00;fill-opacity:1"
         transform="rotate(120,157.79195,104.31162)"
         id="g2747">
        <circle
           transform="matrix(1.61569,0,0,1.1242545,-87.070289,-12.011684)"
           style="opacity:0.75;fill:#ffff00;fill-opacity:1;stroke:none;stroke-width:2.45144987;stroke-linecap:square;stroke-linejoin:bevel;stroke-miterlimit:100;stroke-dasharray:none;stroke-opacity:1;filter:url(#filter5246)"
           id="circle2743"
           cx="141.41902"
           cy="98.747467"
           r="3.7206261" />
        <circle
           r="0.88057005"
           cy="99.0056"
           cx="141.41902"
           id="circle2745"
           style="opacity:1;fill:#ffff00;fill-opacity:1;stroke:none;stroke-width:0.58019084;stroke-linecap:square;stroke-linejoin:bevel;stroke-miterlimit:100;stroke-dasharray:none;stroke-opacity:1" />
      </g>
      <g
         style="fill:#ff00ff;fill-opacity:1"
         id="g2753"
         transform="rotate(-120,157.73918,85.480765)">
        <circle
           r="3.7206261"
           cy="98.747467"
           cx="141.41902"
           id="circle2749"
           style="opacity:0.75;fill:#ff00ff;fill-opacity:1;stroke:none;stroke-width:2.45144987;stroke-linecap:square;stroke-linejoin:bevel;stroke-miterlimit:100;stroke-dasharray:none;stroke-opacity:1;filter:url(#filter5250)"
           transform="matrix(1.61569,0,0,1.1242545,-87.070289,-12.011684)" />
        <circle
           style="opacity:1;fill:#ff00ff;fill-opacity:1;stroke:none;stroke-width:0.58019084;stroke-linecap:square;stroke-linejoin:bevel;stroke-miterlimit:100;stroke-dasharray:none;stroke-opacity:1"
           id="circle2751"
           cx="141.41902"
           cy="99.0056"
           r="0.88057005" />
      </g>
    </g>
    <g
       id="g2775"
       clip-path="url(#clipPath6093)"
       transform="translate(0,44.81555)">
      <g
         transform="translate(65.463192)"
         id="g2761"
         style="fill:#0000ff;fill-opacity:1">
        <circle
           transform="matrix(1.61569,0,0,1.1242545,-87.070289,-12.011684)"
           style="opacity:0.75;fill:#0000ff;fill-opacity:1;stroke:none;stroke-width:2.45144987;stroke-linecap:square;stroke-linejoin:bevel;stroke-miterlimit:100;stroke-dasharray:none;stroke-opacity:1;filter:url(#filter5242)"
           id="circle2757"
           cx="141.41902"
           cy="98.747467"
           r="3.7206261" />
        <circle
           r="0.88057005"
           cy="99.0056"
           cx="141.41902"
           id="circle2759"
           style="opacity:1;fill:#0000ff;fill-opacity:1;stroke:none;stroke-width:0.58019084;stroke-linecap:square;stroke-linejoin:bevel;stroke-miterlimit:100;stroke-dasharray:none;stroke-opacity:1" />
      </g>
      <g
         id="g2767"
         transform="rotate(120,174.15775,113.76042)"
         style="fill:#ffff00;fill-opacity:1">
        <circle
           r="3.7206261"
           cy="98.747467"
           cx="141.41902"
           id="circle2763"
           style="opacity:0.75;fill:#ffff00;fill-opacity:1;stroke:none;stroke-width:2.45144987;stroke-linecap:square;stroke-linejoin:bevel;stroke-miterlimit:100;stroke-dasharray:none;stroke-opacity:1;filter:url(#filter5246)"
           transform="matrix(1.61569,0,0,1.1242545,-87.070289,-12.011684)" />
        <circle
           style="opacity:1;fill:#ffff00;fill-opacity:1;stroke:none;stroke-width:0.58019084;stroke-linecap:square;stroke-linejoin:bevel;stroke-miterlimit:100;stroke-dasharray:none;stroke-opacity:1"
           id="circle2765"
           cx="141.41902"
           cy="99.0056"
           r="0.88057005" />
      </g>
      <g
         transform="rotate(-120,174.10498,76.031966)"
         id="g2773"
         style="fill:#0000ff;fill-opacity:1">
        <circle
           transform="matrix(1.61569,0,0,1.1242545,-87.070289,-12.011684)"
           style="opacity:0.75;fill:#0000ff;fill-opacity:1;stroke:none;stroke-width:2.45144987;stroke-linecap:square;stroke-linejoin:bevel;stroke-miterlimit:100;stroke-dasharray:none;stroke-opacity:1;filter:url(#filter5250)"
           id="circle2769"
           cx="141.41902"
           cy="98.747467"
           r="3.7206261" />
        <circle
           r="0.88057005"
           cy="99.0056"
           cx="141.41902"
           id="circle2771"
           style="opacity:1;fill:#0000ff;fill-opacity:1;stroke:none;stroke-width:0.58019084;stroke-linecap:square;stroke-linejoin:bevel;stroke-miterlimit:100;stroke-dasharray:none;stroke-opacity:1" />
      </g>
    </g>
  </g>
</svg>
